<?xml version="1.0" standalone="yes"?>

<svg version="1.1" viewBox="0.0 0.0 960.0 720.0" fill="none" stroke="none" stroke-linecap="square" stroke-miterlimit="10" xmlns="http://www.w3.org/2000/svg" xmlns:xlink="http://www.w3.org/1999/xlink"><clipPath id="p.0"><path d="m0 0l960.0 0l0 720.0l-960.0 0l0 -720.0z" clip-rule="nonzero"></path></clipPath><g clip-path="url(#p.0)"><path fill="#000000" fill-opacity="0.0" d="m0 0l960.0 0l0 720.0l-960.0 0z" fill-rule="nonzero"></path><path fill="#efefef" d="m35.46194 36.53806l884.4095 0l0 643.71655l-884.4095 0z" fill-rule="nonzero"></path><path stroke="#666666" stroke-width="1.0" stroke-linejoin="round" stroke-linecap="butt" d="m35.46194 36.53806l884.4095 0l0 643.71655l-884.4095 0z" fill-rule="nonzero"></path><path fill="#000000" fill-opacity="0.0" d="m408.0 36.53806l144.0 0l0 72.220474l-144.0 0z" fill-rule="nonzero"></path><path fill="#000000" d="m458.6172 81.18829l6.59375 -17.1875l2.453125 0l7.03125 17.1875l-2.59375 0l-2.0 -5.203125l-7.1875 0l-1.890625 5.203125l-2.40625 0zm4.953125 -7.0625l5.828125 0l-1.796875 -4.75q-0.8125 -2.171875 -1.21875 -3.5625q-0.328125 1.65625 -0.921875 3.28125l-1.890625 5.03125zm12.6640625 11.828125l0 -17.21875l1.921875 0l0 1.625q0.6875 -0.953125 1.53125 -1.421875q0.859375 -0.484375 2.078125 -0.484375q1.59375 0 2.8125 0.828125q1.21875 0.8125 1.84375 2.3125q0.625 1.5 0.625 3.28125q0 1.90625 -0.6875 3.4375q-0.6875 1.53125 -2.0 2.34375q-1.296875 0.8125 -2.734375 0.8125q-1.0625 0 -1.90625 -0.4375q-0.828125 -0.453125 -1.375 -1.140625l0 6.0625l-2.109375 0zm1.921875 -10.921875q0 2.40625 0.96875 3.5625q0.96875 1.140625 2.359375 1.140625q1.40625 0 2.40625 -1.1875q1.0 -1.1875 1.0 -3.6875q0 -2.375 -0.984375 -3.5625q-0.96875 -1.1875 -2.328125 -1.1875q-1.359375 0 -2.390625 1.265625q-1.03125 1.25 -1.03125 3.65625zm11.425781 10.921875l0 -17.21875l1.921875 0l0 1.625q0.6875 -0.953125 1.53125 -1.421875q0.859375 -0.484375 2.078125 -0.484375q1.59375 0 2.8125 0.828125q1.21875 0.8125 1.84375 2.3125q0.625 1.5 0.625 3.28125q0 1.90625 -0.6875 3.4375q-0.6875 1.53125 -2.0 2.34375q-1.296875 0.8125 -2.734375 0.8125q-1.0625 0 -1.90625 -0.4375q-0.828125 -0.453125 -1.375 -1.140625l0 6.0625l-2.109375 0zm1.921875 -10.921875q0 2.40625 0.96875 3.5625q0.96875 1.140625 2.359375 1.140625q1.40625 0 2.40625 -1.1875q1.0 -1.1875 1.0 -3.6875q0 -2.375 -0.984375 -3.5625q-0.96875 -1.1875 -2.328125 -1.1875q-1.359375 0 -2.390625 1.265625q-1.03125 1.25 -1.03125 3.65625z" fill-rule="nonzero"></path><path fill="#d9d9d9" d="m82.73753 108.75853l789.8583 0l0 94.58267l-789.8583 0z" fill-rule="nonzero"></path><path stroke="#999999" stroke-width="1.0" stroke-linejoin="round" stroke-linecap="butt" d="m82.73753 108.75853l789.8583 0l0 94.58267l-789.8583 0z" fill-rule="nonzero"></path><path fill="#000000" fill-opacity="0.0" d="m408.0 119.93964l144.0 0l0 72.220474l-144.0 0z" fill-rule="nonzero"></path><path fill="#000000" d="m425.12695 164.58987l0 -17.1875l2.328125 0l9.03125 13.5l0 -13.5l2.171875 0l0 17.1875l-2.328125 0l-9.015625 -13.5l0 13.5l-2.1875 0zm25.207031 -1.53125q-1.171875 0.984375 -2.265625 1.40625q-1.078125 0.40625 -2.3125 0.40625q-2.046875 0 -3.15625 -1.0q-1.09375 -1.0 -1.09375 -2.5625q0 -0.921875 0.40625 -1.671875q0.421875 -0.75 1.09375 -1.203125q0.671875 -0.46875 1.515625 -0.703125q0.625 -0.15625 1.875 -0.3125q2.5625 -0.3125 3.765625 -0.734375q0.015625 -0.421875 0.015625 -0.546875q0 -1.28125 -0.609375 -1.8125q-0.796875 -0.71875 -2.390625 -0.71875q-1.5 0 -2.203125 0.53125q-0.703125 0.515625 -1.046875 1.84375l-2.0625 -0.28125q0.28125 -1.328125 0.921875 -2.140625q0.640625 -0.8125 1.859375 -1.25q1.21875 -0.453125 2.828125 -0.453125q1.59375 0 2.59375 0.375q1.0 0.375 1.46875 0.953125q0.46875 0.5625 0.65625 1.4375q0.09375 0.53125 0.09375 1.9375l0 2.8125q0 2.9375 0.140625 3.71875q0.140625 0.78125 0.53125 1.5l-2.203125 0q-0.328125 -0.65625 -0.421875 -1.53125zm-0.171875 -4.71875q-1.15625 0.46875 -3.453125 0.796875q-1.296875 0.1875 -1.84375 0.421875q-0.53125 0.234375 -0.828125 0.6875q-0.28125 0.453125 -0.28125 1.0q0 0.84375 0.625 1.40625q0.640625 0.5625 1.875 0.5625q1.21875 0 2.171875 -0.53125q0.953125 -0.53125 1.390625 -1.453125q0.34375 -0.71875 0.34375 -2.109375l0 -0.78125zm8.863281 6.25l-4.734375 -12.453125l2.21875 0l2.671875 7.453125q0.4375 1.21875 0.796875 2.515625q0.28125 -0.984375 0.78125 -2.375l2.765625 -7.59375l2.171875 0l-4.703125 12.453125l-1.96875 0zm8.546875 -14.75l0 -2.4375l2.109375 0l0 2.4375l-2.109375 0zm0 14.75l0 -12.453125l2.109375 0l0 12.453125l-2.109375 0zm4.9414062 1.03125l2.046875 0.3125q0.125 0.9375 0.71875 1.375q0.78125 0.59375 2.140625 0.59375q1.46875 0 2.265625 -0.59375q0.796875 -0.578125 1.078125 -1.640625q0.15625 -0.640625 0.140625 -2.703125q-1.375 1.625 -3.4375 1.625q-2.5625 0 -3.96875 -1.84375q-1.40625 -1.859375 -1.40625 -4.453125q0 -1.78125 0.640625 -3.28125q0.640625 -1.515625 1.859375 -2.328125q1.234375 -0.828125 2.890625 -0.828125q2.203125 0 3.625 1.78125l0 -1.5l1.953125 0l0 10.765625q0 2.90625 -0.59375 4.109375q-0.59375 1.21875 -1.875 1.921875q-1.28125 0.703125 -3.15625 0.703125q-2.234375 0 -3.609375 -1.0q-1.359375 -1.0 -1.3125 -3.015625zm1.734375 -7.484375q0 2.453125 0.96875 3.578125q0.984375 1.125 2.453125 1.125q1.453125 0 2.4375 -1.109375q0.984375 -1.125 0.984375 -3.515625q0 -2.28125 -1.015625 -3.4375q-1.015625 -1.171875 -2.453125 -1.171875q-1.40625 0 -2.390625 1.140625q-0.984375 1.140625 -0.984375 3.390625zm20.113281 4.921875q-1.171875 0.984375 -2.265625 1.40625q-1.078125 0.40625 -2.3125 0.40625q-2.046875 0 -3.15625 -1.0q-1.09375 -1.0 -1.09375 -2.5625q0 -0.921875 0.40625 -1.671875q0.421875 -0.75 1.09375 -1.203125q0.671875 -0.46875 1.515625 -0.703125q0.625 -0.15625 1.875 -0.3125q2.5625 -0.3125 3.765625 -0.734375q0.015625 -0.421875 0.015625 -0.546875q0 -1.28125 -0.609375 -1.8125q-0.796875 -0.71875 -2.390625 -0.71875q-1.5 0 -2.203125 0.53125q-0.703125 0.515625 -1.046875 1.84375l-2.0625 -0.28125q0.28125 -1.328125 0.921875 -2.140625q0.640625 -0.8125 1.859375 -1.25q1.21875 -0.453125 2.828125 -0.453125q1.59375 0 2.59375 0.375q1.0 0.375 1.46875 0.953125q0.46875 0.5625 0.65625 1.4375q0.09375 0.53125 0.09375 1.9375l0 2.8125q0 2.9375 0.140625 3.71875q0.140625 0.78125 0.53125 1.5l-2.203125 0q-0.328125 -0.65625 -0.421875 -1.53125zm-0.171875 -4.71875q-1.15625 0.46875 -3.453125 0.796875q-1.296875 0.1875 -1.84375 0.421875q-0.53125 0.234375 -0.828125 0.6875q-0.28125 0.453125 -0.28125 1.0q0 0.84375 0.625 1.40625q0.640625 0.5625 1.875 0.5625q1.21875 0 2.171875 -0.53125q0.953125 -0.53125 1.390625 -1.453125q0.34375 -0.71875 0.34375 -2.109375l0 -0.78125zm10.003906 4.359375l0.3125 1.859375q-0.890625 0.203125 -1.59375 0.203125q-1.15625 0 -1.796875 -0.359375q-0.625 -0.375 -0.890625 -0.96875q-0.25 -0.59375 -0.25 -2.484375l0 -7.171875l-1.546875 0l0 -1.640625l1.546875 0l0 -3.078125l2.09375 -1.265625l0 4.34375l2.125 0l0 1.640625l-2.125 0l0 7.28125q0 0.90625 0.109375 1.171875q0.125 0.25 0.375 0.40625q0.25 0.140625 0.71875 0.140625q0.34375 0 0.921875 -0.078125zm2.0742188 -12.859375l0 -2.4375l2.109375 0l0 2.4375l-2.109375 0zm0 14.75l0 -12.453125l2.109375 0l0 12.453125l-2.109375 0zm4.5351562 -6.21875q0 -3.46875 1.921875 -5.125q1.609375 -1.390625 3.921875 -1.390625q2.5625 0 4.1875 1.6875q1.625 1.6875 1.625 4.640625q0 2.40625 -0.71875 3.78125q-0.71875 1.375 -2.09375 2.140625q-1.375 0.765625 -3.0 0.765625q-2.625 0 -4.234375 -1.671875q-1.609375 -1.6875 -1.609375 -4.828125zm2.171875 0q0 2.390625 1.03125 3.578125q1.046875 1.1875 2.640625 1.1875q1.5625 0 2.609375 -1.1875q1.046875 -1.203125 1.046875 -3.65625q0 -2.3125 -1.0625 -3.5q-1.046875 -1.1875 -2.59375 -1.1875q-1.59375 0 -2.640625 1.1875q-1.03125 1.1875 -1.03125 3.578125zm11.957031 6.21875l0 -12.453125l1.90625 0l0 1.78125q1.375 -2.0625 3.953125 -2.0625q1.125 0 2.0625 0.40625q0.953125 0.40625 1.421875 1.0625q0.46875 0.65625 0.65625 1.5625q0.125 0.578125 0.125 2.046875l0 7.65625l-2.109375 0l0 -7.578125q0 -1.28125 -0.25 -1.921875q-0.25 -0.640625 -0.875 -1.015625q-0.625 -0.390625 -1.46875 -0.390625q-1.34375 0 -2.328125 0.859375q-0.984375 0.859375 -0.984375 3.25l0 6.796875l-2.109375 0z" fill-rule="nonzero"></path><path fill="#d9d9d9" d="m82.73753 244.04462l789.8583 0l0 400.72443l-789.8583 0z" fill-rule="nonzero"></path><path stroke="#999999" stroke-width="1.0" stroke-linejoin="round" stroke-linecap="butt" d="m82.73753 244.04462l789.8583 0l0 400.72443l-789.8583 0z" fill-rule="nonzero"></path><path fill="#000000" fill-opacity="0.0" d="m408.0 244.04462l144.0 0l0 72.22049l-144.0 0z" fill-rule="nonzero"></path><path fill="#000000" d="m452.08008 282.6636l2.28125 0.578125q-0.71875 2.796875 -2.578125 4.28125q-1.859375 1.46875 -4.546875 1.46875q-2.765625 0 -4.515625 -1.125q-1.734375 -1.140625 -2.640625 -3.28125q-0.90625 -2.15625 -0.90625 -4.609375q0 -2.6875 1.015625 -4.6875q1.03125 -2.0 2.921875 -3.03125q1.890625 -1.03125 4.171875 -1.03125q2.578125 0 4.328125 1.3125q1.765625 1.3125 2.453125 3.6875l-2.234375 0.53125q-0.609375 -1.875 -1.75 -2.734375q-1.125 -0.859375 -2.84375 -0.859375q-1.984375 0 -3.3125 0.953125q-1.328125 0.953125 -1.875 2.546875q-0.53125 1.59375 -0.53125 3.296875q0 2.1875 0.625 3.828125q0.640625 1.640625 1.984375 2.453125q1.359375 0.796875 2.921875 0.796875q1.921875 0 3.234375 -1.09375q1.328125 -1.109375 1.796875 -3.28125zm4.0195312 -0.1875q0 -3.46875 1.921875 -5.125q1.609375 -1.390625 3.921875 -1.390625q2.5625 0 4.1875 1.6875q1.625 1.6875 1.625 4.640625q0 2.40625 -0.71875 3.78125q-0.71875 1.375 -2.09375 2.140625q-1.375 0.765625 -3.0 0.765625q-2.625 0 -4.234375 -1.671875q-1.609375 -1.6875 -1.609375 -4.828125zm2.171875 0q0 2.390625 1.03125 3.578125q1.046875 1.1875 2.640625 1.1875q1.5625 0 2.609375 -1.1875q1.046875 -1.203125 1.046875 -3.65625q0 -2.3125 -1.0625 -3.5q-1.046875 -1.1875 -2.59375 -1.1875q-1.59375 0 -2.640625 1.1875q-1.03125 1.1875 -1.03125 3.578125zm11.957031 6.21875l0 -12.453125l1.90625 0l0 1.78125q1.375 -2.0625 3.953125 -2.0625q1.125 0 2.0625 0.40625q0.953125 0.40625 1.421875 1.0625q0.46875 0.65625 0.65625 1.5625q0.125 0.578125 0.125 2.046875l0 7.65625l-2.109375 0l0 -7.578125q0 -1.28125 -0.25 -1.921875q-0.25 -0.640625 -0.875 -1.015625q-0.625 -0.390625 -1.46875 -0.390625q-1.34375 0 -2.328125 0.859375q-0.984375 0.859375 -0.984375 3.25l0 6.796875l-2.109375 0zm17.957031 -1.890625l0.3125 1.859375q-0.890625 0.203125 -1.59375 0.203125q-1.15625 0 -1.796875 -0.359375q-0.625 -0.375 -0.890625 -0.96875q-0.25 -0.59375 -0.25 -2.484375l0 -7.171875l-1.546875 0l0 -1.640625l1.546875 0l0 -3.078125l2.09375 -1.265625l0 4.34375l2.125 0l0 1.640625l-2.125 0l0 7.28125q0 0.90625 0.109375 1.171875q0.125 0.25 0.375 0.40625q0.25 0.140625 0.71875 0.140625q0.34375 0 0.921875 -0.078125zm10.589844 -2.125l2.171875 0.28125q-0.515625 1.90625 -1.90625 2.96875q-1.390625 1.046875 -3.5625 1.046875q-2.734375 0 -4.34375 -1.671875q-1.59375 -1.6875 -1.59375 -4.734375q0 -3.140625 1.609375 -4.875q1.625 -1.734375 4.203125 -1.734375q2.5 0 4.078125 1.703125q1.59375 1.703125 1.59375 4.78125q0 0.1875 -0.015625 0.5625l-9.28125 0q0.109375 2.046875 1.15625 3.140625q1.046875 1.09375 2.609375 1.09375q1.15625 0 1.96875 -0.609375q0.828125 -0.609375 1.3125 -1.953125zm-6.9375 -3.40625l6.953125 0q-0.140625 -1.5625 -0.796875 -2.359375q-1.0 -1.21875 -2.609375 -1.21875q-1.453125 0 -2.453125 0.984375q-0.984375 0.96875 -1.09375 2.59375zm11.753906 7.421875l0 -12.453125l1.90625 0l0 1.78125q1.375 -2.0625 3.953125 -2.0625q1.125 0 2.0625 0.40625q0.953125 0.40625 1.421875 1.0625q0.46875 0.65625 0.65625 1.5625q0.125 0.578125 0.125 2.046875l0 7.65625l-2.109375 0l0 -7.578125q0 -1.28125 -0.25 -1.921875q-0.25 -0.640625 -0.875 -1.015625q-0.625 -0.390625 -1.46875 -0.390625q-1.34375 0 -2.328125 0.859375q-0.984375 0.859375 -0.984375 3.25l0 6.796875l-2.109375 0zm17.957031 -1.890625l0.3125 1.859375q-0.890625 0.203125 -1.59375 0.203125q-1.15625 0 -1.796875 -0.359375q-0.625 -0.375 -0.890625 -0.96875q-0.25 -0.59375 -0.25 -2.484375l0 -7.171875l-1.546875 0l0 -1.640625l1.546875 0l0 -3.078125l2.09375 -1.265625l0 4.34375l2.125 0l0 1.640625l-2.125 0l0 7.28125q0 0.90625 0.109375 1.171875q0.125 0.25 0.375 0.40625q0.25 0.140625 0.71875 0.140625q0.34375 0 0.921875 -0.078125z" fill-rule="nonzero"></path><path fill="#cccccc" d="m124.83465 316.2651l710.3307 0l0 291.21262l-710.3307 0z" fill-rule="nonzero"></path><path stroke="#999999" stroke-width="1.0" stroke-linejoin="round" stroke-linecap="butt" d="m124.83465 316.2651l710.3307 0l0 291.21262l-710.3307 0z" fill-rule="nonzero"></path><path fill="#000000" fill-opacity="0.0" d="m408.0 316.2651l144.0 0l0 72.22046l-144.0 0z" fill-rule="nonzero"></path><path fill="#000000" d="m463.0918 360.91534l0 -17.1875l2.265625 0l0 15.15625l8.46875 0l0 2.03125l-10.734375 0zm13.175781 -14.75l0 -2.4375l2.109375 0l0 2.4375l-2.109375 0zm0 14.75l0 -12.453125l2.109375 0l0 12.453125l-2.109375 0zm4.4726562 -3.71875l2.09375 -0.328125q0.171875 1.25 0.96875 1.921875q0.8125 0.671875 2.25 0.671875q1.453125 0 2.15625 -0.59375q0.703125 -0.59375 0.703125 -1.390625q0 -0.71875 -0.625 -1.125q-0.421875 -0.28125 -2.15625 -0.71875q-2.3125 -0.578125 -3.21875 -1.0q-0.890625 -0.4375 -1.359375 -1.1875q-0.453125 -0.765625 -0.453125 -1.671875q0 -0.828125 0.375 -1.53125q0.390625 -0.71875 1.046875 -1.1875q0.484375 -0.359375 1.328125 -0.609375q0.859375 -0.265625 1.828125 -0.265625q1.46875 0 2.578125 0.421875q1.109375 0.421875 1.625 1.15625q0.53125 0.71875 0.734375 1.921875l-2.0625 0.28125q-0.140625 -0.96875 -0.8125 -1.5q-0.671875 -0.546875 -1.90625 -0.546875q-1.453125 0 -2.078125 0.484375q-0.625 0.484375 -0.625 1.125q0 0.40625 0.265625 0.734375q0.25 0.34375 0.8125 0.5625q0.3125 0.125 1.859375 0.546875q2.234375 0.59375 3.109375 0.984375q0.890625 0.375 1.390625 1.109375q0.515625 0.71875 0.515625 1.796875q0 1.046875 -0.625 1.984375q-0.609375 0.9375 -1.765625 1.453125q-1.15625 0.5 -2.625 0.5q-2.421875 0 -3.703125 -1.0q-1.265625 -1.015625 -1.625 -3.0zm17.453125 1.828125l0.3125 1.859375q-0.890625 0.203125 -1.59375 0.203125q-1.15625 0 -1.796875 -0.359375q-0.625 -0.375 -0.890625 -0.96875q-0.25 -0.59375 -0.25 -2.484375l0 -7.171875l-1.546875 0l0 -1.640625l1.546875 0l0 -3.078125l2.09375 -1.265625l0 4.34375l2.125 0l0 1.640625l-2.125 0l0 7.28125q0 0.90625 0.109375 1.171875q0.125 0.25 0.375 0.40625q0.25 0.140625 0.71875 0.140625q0.34375 0 0.921875 -0.078125z" fill-rule="nonzero"></path><path fill="#b7b7b7" d="m157.97113 393.31235l88.12598 0l0 85.98425l-88.12598 0z" fill-rule="nonzero"></path><path stroke="#999999" stroke-width="1.0" stroke-linejoin="round" stroke-linecap="butt" d="m157.97113 393.31235l88.12598 0l0 85.98425l-88.12598 0z" fill-rule="nonzero"></path><path fill="#b7b7b7" d="m157.97113 501.72964l88.12598 0l0 85.98428l-88.12598 0z" fill-rule="nonzero"></path><path stroke="#999999" stroke-width="1.0" stroke-linejoin="round" stroke-linecap="butt" d="m157.97113 501.72964l88.12598 0l0 85.98428l-88.12598 0z" fill-rule="nonzero"></path><path fill="#b7b7b7" d="m273.9134 393.31235l88.12598 0l0 85.98425l-88.12598 0z" fill-rule="nonzero"></path><path stroke="#999999" stroke-width="1.0" stroke-linejoin="round" stroke-linecap="butt" d="m273.9134 393.31235l88.12598 0l0 85.98425l-88.12598 0z" fill-rule="nonzero"></path><path fill="#b7b7b7" d="m273.9134 501.72964l88.12598 0l0 85.98428l-88.12598 0z" fill-rule="nonzero"></path><path stroke="#999999" stroke-width="1.0" stroke-linejoin="round" stroke-linecap="butt" d="m273.9134 501.72964l88.12598 0l0 85.98428l-88.12598 0z" fill-rule="nonzero"></path><path fill="#b7b7b7" d="m384.36484 501.40945l88.12598 0l0 85.98422l-88.12598 0z" fill-rule="nonzero"></path><path stroke="#999999" stroke-width="1.0" stroke-linejoin="round" stroke-linecap="butt" d="m384.36484 501.40945l88.12598 0l0 85.98422l-88.12598 0z" fill-rule="nonzero"></path><path fill="#b7b7b7" d="m384.36484 393.31235l88.12598 0l0 85.98425l-88.12598 0z" fill-rule="nonzero"></path><path stroke="#999999" stroke-width="1.0" stroke-linejoin="round" stroke-linecap="butt" d="m384.36484 393.31235l88.12598 0l0 85.98425l-88.12598 0z" fill-rule="nonzero"></path><path fill="#b7b7b7" d="m494.81628 393.31235l88.12598 0l0 85.98425l-88.12598 0z" fill-rule="nonzero"></path><path stroke="#999999" stroke-width="1.0" stroke-linejoin="round" stroke-linecap="butt" d="m494.81628 393.31235l88.12598 0l0 85.98425l-88.12598 0z" fill-rule="nonzero"></path><path fill="#b7b7b7" d="m494.81628 501.40945l88.12598 0l0 85.98422l-88.12598 0z" fill-rule="nonzero"></path><path stroke="#999999" stroke-width="1.0" stroke-linejoin="round" stroke-linecap="butt" d="m494.81628 501.40945l88.12598 0l0 85.98422l-88.12598 0z" fill-rule="nonzero"></path><path fill="#b7b7b7" d="m605.2677 501.40945l88.12598 0l0 85.98422l-88.12598 0z" fill-rule="nonzero"></path><path stroke="#999999" stroke-width="1.0" stroke-linejoin="round" stroke-linecap="butt" d="m605.2677 501.40945l88.12598 0l0 85.98422l-88.12598 0z" fill-rule="nonzero"></path><path fill="#b7b7b7" d="m715.7192 501.72964l88.12598 0l0 85.98428l-88.12598 0z" fill-rule="nonzero"></path><path stroke="#999999" stroke-width="1.0" stroke-linejoin="round" stroke-linecap="butt" d="m715.7192 501.72964l88.12598 0l0 85.98428l-88.12598 0z" fill-rule="nonzero"></path><path fill="#b7b7b7" d="m605.2677 393.31235l88.12598 0l0 85.98425l-88.12598 0z" fill-rule="nonzero"></path><path stroke="#999999" stroke-width="1.0" stroke-linejoin="round" stroke-linecap="butt" d="m605.2677 393.31235l88.12598 0l0 85.98425l-88.12598 0z" fill-rule="nonzero"></path><path fill="#b7b7b7" d="m715.7192 393.31235l88.12598 0l0 85.98425l-88.12598 0z" fill-rule="nonzero"></path><path stroke="#999999" stroke-width="1.0" stroke-linejoin="round" stroke-linecap="butt" d="m715.7192 393.31235l88.12598 0l0 85.98425l-88.12598 0z" fill-rule="nonzero"></path><path fill="#fff2cc" d="m859.7008 55.889763l0 0c0 -23.743893 19.727661 -42.992126 44.06299 -42.992126l0 0c11.686218 0 22.893799 4.5295153 31.157227 12.592103c8.263428 8.062586 12.905762 18.997805 12.905762 30.400023l0 0c0 23.743896 -19.727661 42.992126 -44.06299 42.992126l0 0c-24.335327 0 -44.06299 -19.24823 -44.06299 -42.992126z" fill-rule="nonzero"></path><path stroke="#666666" stroke-width="1.0" stroke-linejoin="round" stroke-linecap="butt" d="m859.7008 55.889763l0 0c0 -23.743893 19.727661 -42.992126 44.06299 -42.992126l0 0c11.686218 0 22.893799 4.5295153 31.157227 12.592103c8.263428 8.062586 12.905762 18.997805 12.905762 30.400023l0 0c0 23.743896 -19.727661 42.992126 -44.06299 42.992126l0 0c-24.335327 0 -44.06299 -19.24823 -44.06299 -42.992126z" fill-rule="nonzero"></path><path fill="#000000" fill-opacity="0.0" d="m859.7008 19.779528l88.12598 0l0 72.220474l-88.12598 0z" fill-rule="nonzero"></path><path fill="#000000" d="m884.1466 67.609764l8.796875 -22.90625l3.265625 0l9.375 22.90625l-3.453125 0l-2.671875 -6.9375l-9.578125 0l-2.515625 6.9375l-3.21875 0zm6.609375 -9.40625l7.765625 0l-2.390625 -6.34375q-1.09375 -2.890625 -1.625 -4.75q-0.4375 2.203125 -1.234375 4.375l-2.515625 6.71875zm26.703125 9.40625l-2.8125 0l0 -17.921875q-1.015625 0.96875 -2.671875 1.9375q-1.640625 0.96875 -2.953125 1.453125l0 -2.71875q2.359375 -1.109375 4.125 -2.6875q1.765625 -1.578125 2.5 -3.0625l1.8125 0l0 23.0z" fill-rule="nonzero"></path><path fill="#ffd966" d="m52.53806 114.874016l0 0c0 -23.743896 19.727673 -42.992126 44.062992 -42.992126l0 0c11.6862335 0 22.893822 4.529518 31.157242 12.592102c8.263405 8.062592 12.905754 18.997803 12.905754 30.400024l0 0c0 23.743889 -19.727676 42.992134 -44.062996 42.992134l0 0c-24.33532 0 -44.062992 -19.248245 -44.062992 -42.992134z" fill-rule="nonzero"></path><path stroke="#666666" stroke-width="1.0" stroke-linejoin="round" stroke-linecap="butt" d="m52.53806 114.874016l0 0c0 -23.743896 19.727673 -42.992126 44.062992 -42.992126l0 0c11.6862335 0 22.893822 4.529518 31.157242 12.592102c8.263405 8.062592 12.905754 18.997803 12.905754 30.400024l0 0c0 23.743889 -19.727676 42.992134 -44.062996 42.992134l0 0c-24.33532 0 -44.062992 -19.248245 -44.062992 -42.992134z" fill-rule="nonzero"></path><path fill="#000000" fill-opacity="0.0" d="m52.53806 78.76378l88.12599 0l0 72.220474l-88.12599 0z" fill-rule="nonzero"></path><path fill="#000000" d="m76.983864 126.59402l8.796875 -22.90625l3.265625 0l9.375 22.90625l-3.453125 0l-2.671875 -6.9375l-9.578125 0l-2.515625 6.9375l-3.21875 0zm6.609375 -9.40625l7.765625 0l-2.390625 -6.34375q-1.09375 -2.890625 -1.625 -4.75q-0.4375 2.203125 -1.234375 4.375l-2.515625 6.71875zm30.890625 6.703125l0 2.703125l-15.140625 0q-0.03125 -1.015625 0.328125 -1.953125q0.578125 -1.546875 1.84375 -3.046875q1.28125 -1.5 3.6875 -3.46875q3.734375 -3.0625 5.046875 -4.84375q1.3125 -1.796875 1.3125 -3.390625q0 -1.671875 -1.203125 -2.8125q-1.1875 -1.15625 -3.109375 -1.15625q-2.03125 0 -3.25 1.21875q-1.21875 1.21875 -1.234375 3.375l-2.890625 -0.296875q0.296875 -3.234375 2.234375 -4.921875q1.9375 -1.703125 5.203125 -1.703125q3.296875 0 5.21875 1.828125q1.921875 1.828125 1.921875 4.53125q0 1.375 -0.5625 2.703125q-0.5625 1.328125 -1.875 2.796875q-1.296875 1.46875 -4.328125 4.03125q-2.53125 2.125 -3.25 2.890625q-0.71875 0.75 -1.1875 1.515625l11.234375 0z" fill-rule="nonzero"></path><path fill="#fff2cc" d="m52.53806 252.78215l0 0c0 -23.743896 19.727673 -42.992126 44.062992 -42.992126l0 0c11.6862335 0 22.893822 4.5295105 31.157242 12.592102c8.263405 8.062592 12.905754 18.997803 12.905754 30.400024l0 0c0 23.743912 -19.727676 42.99214 -44.062996 42.99214l0 0c-24.33532 0 -44.062992 -19.24823 -44.062992 -42.99214z" fill-rule="nonzero"></path><path stroke="#666666" stroke-width="1.0" stroke-linejoin="round" stroke-linecap="butt" d="m52.53806 252.78215l0 0c0 -23.743896 19.727673 -42.992126 44.062992 -42.992126l0 0c11.6862335 0 22.893822 4.5295105 31.157242 12.592102c8.263405 8.062592 12.905754 18.997803 12.905754 30.400024l0 0c0 23.743912 -19.727676 42.99214 -44.062996 42.99214l0 0c-24.33532 0 -44.062992 -19.24823 -44.062992 -42.99214z" fill-rule="nonzero"></path><path fill="#000000" fill-opacity="0.0" d="m52.53806 216.67192l88.12599 0l0 72.220474l-88.12599 0z" fill-rule="nonzero"></path><path fill="#000000" d="m76.983864 264.50217l8.796875 -22.906265l3.265625 0l9.375 22.906265l-3.453125 0l-2.671875 -6.9375l-9.578125 0l-2.515625 6.9375l-3.21875 0zm6.609375 -9.406265l7.765625 0l-2.390625 -6.34375q-1.09375 -2.890625 -1.625 -4.75q-0.4375 2.203125 -1.234375 4.375l-2.515625 6.71875zm26.703125 9.406265l-2.8125 0l0 -17.92189q-1.015625 0.96875 -2.671875 1.9375q-1.640625 0.96875 -2.953125 1.453125l0 -2.71875q2.359375 -1.109375 4.125 -2.6875q1.765625 -1.578125 2.5 -3.0625l1.8125 0l0 23.000015z" fill-rule="nonzero"></path><path fill="#ffd966" d="m771.5748 327.88715l0 0c0 -23.743896 19.727661 -42.992126 44.06299 -42.992126l0 0c11.686218 0 22.893799 4.5295105 31.157227 12.592102c8.263428 8.062592 12.905762 18.997803 12.905762 30.400024l0 0c0 23.743896 -19.727722 42.992126 -44.06299 42.992126l0 0c-24.335327 0 -44.06299 -19.24823 -44.06299 -42.992126z" fill-rule="nonzero"></path><path stroke="#666666" stroke-width="1.0" stroke-linejoin="round" stroke-linecap="butt" d="m771.5748 327.88715l0 0c0 -23.743896 19.727661 -42.992126 44.06299 -42.992126l0 0c11.686218 0 22.893799 4.5295105 31.157227 12.592102c8.263428 8.062592 12.905762 18.997803 12.905762 30.400024l0 0c0 23.743896 -19.727722 42.992126 -44.06299 42.992126l0 0c-24.335327 0 -44.06299 -19.24823 -44.06299 -42.992126z" fill-rule="nonzero"></path><path fill="#000000" fill-opacity="0.0" d="m771.5748 291.77692l88.12598 0l0 72.22046l-88.12598 0z" fill-rule="nonzero"></path><path fill="#000000" d="m796.0206 339.60715l8.796875 -22.90625l3.265625 0l9.375 22.90625l-3.453125 0l-2.671875 -6.9375l-9.578125 0l-2.515625 6.9375l-3.21875 0zm6.609375 -9.40625l7.765625 0l-2.390625 -6.34375q-1.09375 -2.890625 -1.625 -4.75q-0.4375 2.203125 -1.234375 4.375l-2.515625 6.71875zm30.890625 6.703125l0 2.703125l-15.140625 0q-0.03125 -1.015625 0.328125 -1.953125q0.578125 -1.546875 1.84375 -3.046875q1.28125 -1.5 3.6875 -3.46875q3.734375 -3.0625 5.046875 -4.84375q1.3125 -1.796875 1.3125 -3.390625q0 -1.671875 -1.203125 -2.8125q-1.1875 -1.15625 -3.109375 -1.15625q-2.03125 0 -3.25 1.21875q-1.21875 1.21875 -1.234375 3.375l-2.890625 -0.296875q0.296875 -3.234375 2.234375 -4.921875q1.9375 -1.703125 5.203125 -1.703125q3.296875 0 5.21875 1.828125q1.921875 1.828125 1.921875 4.53125q0 1.375 -0.5625 2.703125q-0.5625 1.328125 -1.875 2.796875q-1.296875 1.46875 -4.328125 4.03125q-2.53125 2.125 -3.25 2.890625q-0.71875 0.75 -1.1875 1.515625l11.234375 0z" fill-rule="nonzero"></path><path fill="#fff2cc" d="m157.97113 436.30447l0 0c0 -23.743896 19.727676 -42.992126 44.06299 -42.992126l0 0c11.6862335 0 22.89383 4.5295105 31.157242 12.592102c8.263412 8.062592 12.905746 18.997803 12.905746 30.400024l0 0c0 23.743896 -19.727661 42.992126 -44.06299 42.992126l0 0c-24.335312 0 -44.06299 -19.24823 -44.06299 -42.992126z" fill-rule="nonzero"></path><path stroke="#666666" stroke-width="1.0" stroke-linejoin="round" stroke-linecap="butt" d="m157.97113 436.30447l0 0c0 -23.743896 19.727676 -42.992126 44.06299 -42.992126l0 0c11.6862335 0 22.89383 4.5295105 31.157242 12.592102c8.263412 8.062592 12.905746 18.997803 12.905746 30.400024l0 0c0 23.743896 -19.727661 42.992126 -44.06299 42.992126l0 0c-24.335312 0 -44.06299 -19.24823 -44.06299 -42.992126z" fill-rule="nonzero"></path><path fill="#000000" fill-opacity="0.0" d="m157.97113 400.1942l88.12598 0l0 72.22049l-88.12598 0z" fill-rule="nonzero"></path><path fill="#000000" d="m182.41693 448.02448l8.796875 -22.90625l3.265625 0l9.375 22.90625l-3.453125 0l-2.671875 -6.9375l-9.578125 0l-2.515625 6.9375l-3.21875 0zm6.609375 -9.40625l7.765625 0l-2.390625 -6.34375q-1.09375 -2.890625 -1.625 -4.75q-0.4375 2.203125 -1.234375 4.375l-2.515625 6.71875zm26.703125 9.40625l-2.8125 0l0 -17.921875q-1.015625 0.96875 -2.671875 1.9375q-1.640625 0.96875 -2.953125 1.453125l0 -2.71875q2.359375 -1.109375 4.125 -2.6875q1.765625 -1.578125 2.5 -3.0625l1.8125 0l0 23.0z" fill-rule="nonzero"></path><path fill="#fff2cc" d="m273.9134 436.30447l0 0c0 -23.743896 19.727661 -42.992126 44.06299 -42.992126l0 0c11.686218 0 22.89383 4.5295105 31.157227 12.592102c8.263428 8.062592 12.905762 18.997803 12.905762 30.400024l0 0c0 23.743896 -19.727661 42.992126 -44.06299 42.992126l0 0c-24.335327 0 -44.06299 -19.24823 -44.06299 -42.992126z" fill-rule="nonzero"></path><path stroke="#666666" stroke-width="1.0" stroke-linejoin="round" stroke-linecap="butt" d="m273.9134 436.30447l0 0c0 -23.743896 19.727661 -42.992126 44.06299 -42.992126l0 0c11.686218 0 22.89383 4.5295105 31.157227 12.592102c8.263428 8.062592 12.905762 18.997803 12.905762 30.400024l0 0c0 23.743896 -19.727661 42.992126 -44.06299 42.992126l0 0c-24.335327 0 -44.06299 -19.24823 -44.06299 -42.992126z" fill-rule="nonzero"></path><path fill="#000000" fill-opacity="0.0" d="m273.9134 400.1942l88.12598 0l0 72.22049l-88.12598 0z" fill-rule="nonzero"></path><path fill="#000000" d="m298.3592 448.02448l8.796875 -22.90625l3.265625 0l9.375 22.90625l-3.453125 0l-2.671875 -6.9375l-9.578125 0l-2.515625 6.9375l-3.21875 0zm6.609375 -9.40625l7.765625 0l-2.390625 -6.34375q-1.09375 -2.890625 -1.625 -4.75q-0.4375 2.203125 -1.234375 4.375l-2.515625 6.71875zm26.703125 9.40625l-2.8125 0l0 -17.921875q-1.015625 0.96875 -2.671875 1.9375q-1.640625 0.96875 -2.953125 1.453125l0 -2.71875q2.359375 -1.109375 4.125 -2.6875q1.765625 -1.578125 2.5 -3.0625l1.8125 0l0 23.0z" fill-rule="nonzero"></path><path fill="#fff2cc" d="m384.36484 436.30447l0 0c0 -23.743896 19.727661 -42.992126 44.06299 -42.992126l0 0c11.686218 0 22.89383 4.5295105 31.157227 12.592102c8.263428 8.062592 12.905762 18.997803 12.905762 30.400024l0 0c0 23.743896 -19.727661 42.992126 -44.06299 42.992126l0 0c-24.335327 0 -44.06299 -19.24823 -44.06299 -42.992126z" fill-rule="nonzero"></path><path stroke="#666666" stroke-width="1.0" stroke-linejoin="round" stroke-linecap="butt" d="m384.36484 436.30447l0 0c0 -23.743896 19.727661 -42.992126 44.06299 -42.992126l0 0c11.686218 0 22.89383 4.5295105 31.157227 12.592102c8.263428 8.062592 12.905762 18.997803 12.905762 30.400024l0 0c0 23.743896 -19.727661 42.992126 -44.06299 42.992126l0 0c-24.335327 0 -44.06299 -19.24823 -44.06299 -42.992126z" fill-rule="nonzero"></path><path fill="#000000" fill-opacity="0.0" d="m384.36484 400.1942l88.12598 0l0 72.22049l-88.12598 0z" fill-rule="nonzero"></path><path fill="#000000" d="m408.81064 448.02448l8.796875 -22.90625l3.265625 0l9.375 22.90625l-3.453125 0l-2.671875 -6.9375l-9.578125 0l-2.515625 6.9375l-3.21875 0zm6.609375 -9.40625l7.765625 0l-2.390625 -6.34375q-1.09375 -2.890625 -1.625 -4.75q-0.4375 2.203125 -1.234375 4.375l-2.515625 6.71875zm26.703125 9.40625l-2.8125 0l0 -17.921875q-1.015625 0.96875 -2.671875 1.9375q-1.640625 0.96875 -2.953125 1.453125l0 -2.71875q2.359375 -1.109375 4.125 -2.6875q1.765625 -1.578125 2.5 -3.0625l1.8125 0l0 23.0z" fill-rule="nonzero"></path><path fill="#fff2cc" d="m494.81628 436.30447l0 0c0 -23.743896 19.727661 -42.992126 44.06299 -42.992126l0 0c11.686218 0 22.893799 4.5295105 31.157227 12.592102c8.263428 8.062592 12.905762 18.997803 12.905762 30.400024l0 0c0 23.743896 -19.727661 42.992126 -44.06299 42.992126l0 0c-24.335327 0 -44.06299 -19.24823 -44.06299 -42.992126z" fill-rule="nonzero"></path><path stroke="#666666" stroke-width="1.0" stroke-linejoin="round" stroke-linecap="butt" d="m494.81628 436.30447l0 0c0 -23.743896 19.727661 -42.992126 44.06299 -42.992126l0 0c11.686218 0 22.893799 4.5295105 31.157227 12.592102c8.263428 8.062592 12.905762 18.997803 12.905762 30.400024l0 0c0 23.743896 -19.727661 42.992126 -44.06299 42.992126l0 0c-24.335327 0 -44.06299 -19.24823 -44.06299 -42.992126z" fill-rule="nonzero"></path><path fill="#000000" fill-opacity="0.0" d="m494.81628 400.1942l88.12598 0l0 72.22049l-88.12598 0z" fill-rule="nonzero"></path><path fill="#000000" d="m519.2621 448.02448l8.796875 -22.90625l3.265625 0l9.375 22.90625l-3.453125 0l-2.671875 -6.9375l-9.578125 0l-2.515625 6.9375l-3.21875 0zm6.609375 -9.40625l7.765625 0l-2.390625 -6.34375q-1.09375 -2.890625 -1.625 -4.75q-0.4375 2.203125 -1.234375 4.375l-2.515625 6.71875zm26.703125 9.40625l-2.8125 0l0 -17.921875q-1.015625 0.96875 -2.671875 1.9375q-1.640625 0.96875 -2.953125 1.453125l0 -2.71875q2.359375 -1.109375 4.125 -2.6875q1.765625 -1.578125 2.5 -3.0625l1.8125 0l0 23.0z" fill-rule="nonzero"></path><path fill="#fff2cc" d="m605.2677 436.30447l0 0c0 -23.743896 19.727661 -42.992126 44.06299 -42.992126l0 0c11.686279 0 22.89386 4.5295105 31.157288 12.592102c8.263367 8.062592 12.905701 18.997803 12.905701 30.400024l0 0c0 23.743896 -19.727661 42.992126 -44.06299 42.992126l0 0c-24.335327 0 -44.06299 -19.24823 -44.06299 -42.992126z" fill-rule="nonzero"></path><path stroke="#666666" stroke-width="1.0" stroke-linejoin="round" stroke-linecap="butt" d="m605.2677 436.30447l0 0c0 -23.743896 19.727661 -42.992126 44.06299 -42.992126l0 0c11.686279 0 22.89386 4.5295105 31.157288 12.592102c8.263367 8.062592 12.905701 18.997803 12.905701 30.400024l0 0c0 23.743896 -19.727661 42.992126 -44.06299 42.992126l0 0c-24.335327 0 -44.06299 -19.24823 -44.06299 -42.992126z" fill-rule="nonzero"></path><path fill="#000000" fill-opacity="0.0" d="m605.2677 400.1942l88.12598 0l0 72.22049l-88.12598 0z" fill-rule="nonzero"></path><path fill="#000000" d="m629.7135 448.02448l8.796875 -22.90625l3.265625 0l9.375 22.90625l-3.453125 0l-2.671875 -6.9375l-9.578125 0l-2.515625 6.9375l-3.21875 0zm6.609375 -9.40625l7.765625 0l-2.390625 -6.34375q-1.09375 -2.890625 -1.625 -4.75q-0.4375 2.203125 -1.234375 4.375l-2.515625 6.71875zm26.703125 9.40625l-2.8125 0l0 -17.921875q-1.015625 0.96875 -2.671875 1.9375q-1.640625 0.96875 -2.953125 1.453125l0 -2.71875q2.359375 -1.109375 4.125 -2.6875q1.765625 -1.578125 2.5 -3.0625l1.8125 0l0 23.0z" fill-rule="nonzero"></path><path fill="#fff2cc" d="m715.7192 436.30447l0 0c0 -23.743896 19.727661 -42.992126 44.06299 -42.992126l0 0c11.686218 0 22.893799 4.5295105 31.157227 12.592102c8.263428 8.062592 12.905762 18.997803 12.905762 30.400024l0 0c0 23.743896 -19.727661 42.992126 -44.06299 42.992126l0 0c-24.335327 0 -44.06299 -19.24823 -44.06299 -42.992126z" fill-rule="nonzero"></path><path stroke="#666666" stroke-width="1.0" stroke-linejoin="round" stroke-linecap="butt" d="m715.7192 436.30447l0 0c0 -23.743896 19.727661 -42.992126 44.06299 -42.992126l0 0c11.686218 0 22.893799 4.5295105 31.157227 12.592102c8.263428 8.062592 12.905762 18.997803 12.905762 30.400024l0 0c0 23.743896 -19.727661 42.992126 -44.06299 42.992126l0 0c-24.335327 0 -44.06299 -19.24823 -44.06299 -42.992126z" fill-rule="nonzero"></path><path fill="#000000" fill-opacity="0.0" d="m715.7192 400.1942l88.12598 0l0 72.22049l-88.12598 0z" fill-rule="nonzero"></path><path fill="#000000" d="m740.165 448.02448l8.796875 -22.90625l3.265625 0l9.375 22.90625l-3.453125 0l-2.671875 -6.9375l-9.578125 0l-2.515625 6.9375l-3.21875 0zm6.609375 -9.40625l7.765625 0l-2.390625 -6.34375q-1.09375 -2.890625 -1.625 -4.75q-0.4375 2.203125 -1.234375 4.375l-2.515625 6.71875zm26.703125 9.40625l-2.8125 0l0 -17.921875q-1.015625 0.96875 -2.671875 1.9375q-1.640625 0.96875 -2.953125 1.453125l0 -2.71875q2.359375 -1.109375 4.125 -2.6875q1.765625 -1.578125 2.5 -3.0625l1.8125 0l0 23.0z" fill-rule="nonzero"></path><path fill="#fff2cc" d="m157.97113 544.7218l0 0c0 -23.743896 19.727676 -42.992157 44.06299 -42.992157l0 0c11.6862335 0 22.89383 4.529541 31.157242 12.592133c8.263412 8.062561 12.905746 18.997803 12.905746 30.400024l0 0c0 23.743896 -19.727661 42.992126 -44.06299 42.992126l0 0c-24.335312 0 -44.06299 -19.24823 -44.06299 -42.992126z" fill-rule="nonzero"></path><path stroke="#666666" stroke-width="1.0" stroke-linejoin="round" stroke-linecap="butt" d="m157.97113 544.7218l0 0c0 -23.743896 19.727676 -42.992157 44.06299 -42.992157l0 0c11.6862335 0 22.89383 4.529541 31.157242 12.592133c8.263412 8.062561 12.905746 18.997803 12.905746 30.400024l0 0c0 23.743896 -19.727661 42.992126 -44.06299 42.992126l0 0c-24.335312 0 -44.06299 -19.24823 -44.06299 -42.992126z" fill-rule="nonzero"></path><path fill="#000000" fill-opacity="0.0" d="m157.97113 508.61154l88.12598 0l0 72.22049l-88.12598 0z" fill-rule="nonzero"></path><path fill="#000000" d="m182.41693 556.4418l8.796875 -22.90625l3.265625 0l9.375 22.90625l-3.453125 0l-2.671875 -6.9375l-9.578125 0l-2.515625 6.9375l-3.21875 0zm6.609375 -9.40625l7.765625 0l-2.390625 -6.34375q-1.09375 -2.890625 -1.625 -4.75q-0.4375 2.203125 -1.234375 4.375l-2.515625 6.71875zm26.703125 9.40625l-2.8125 0l0 -17.921875q-1.015625 0.96875 -2.671875 1.9375q-1.640625 0.96875 -2.953125 1.453125l0 -2.71875q2.359375 -1.109375 4.125 -2.6875q1.765625 -1.578125 2.5 -3.0625l1.8125 0l0 23.0z" fill-rule="nonzero"></path><path fill="#fff2cc" d="m273.9134 544.40155l0 0c0 -23.743896 19.727661 -42.992096 44.06299 -42.992096l0 0c11.686218 0 22.89383 4.5295105 31.157227 12.592072c8.263428 8.062622 12.905762 18.997803 12.905762 30.400024l0 0c0 23.743896 -19.727661 42.992126 -44.06299 42.992126l0 0c-24.335327 0 -44.06299 -19.24823 -44.06299 -42.992126z" fill-rule="nonzero"></path><path stroke="#666666" stroke-width="1.0" stroke-linejoin="round" stroke-linecap="butt" d="m273.9134 544.40155l0 0c0 -23.743896 19.727661 -42.992096 44.06299 -42.992096l0 0c11.686218 0 22.89383 4.5295105 31.157227 12.592072c8.263428 8.062622 12.905762 18.997803 12.905762 30.400024l0 0c0 23.743896 -19.727661 42.992126 -44.06299 42.992126l0 0c-24.335327 0 -44.06299 -19.24823 -44.06299 -42.992126z" fill-rule="nonzero"></path><path fill="#000000" fill-opacity="0.0" d="m273.9134 508.29135l88.12598 0l0 72.22049l-88.12598 0z" fill-rule="nonzero"></path><path fill="#000000" d="m298.3592 556.1216l8.796875 -22.90625l3.265625 0l9.375 22.90625l-3.453125 0l-2.671875 -6.9375l-9.578125 0l-2.515625 6.9375l-3.21875 0zm6.609375 -9.40625l7.765625 0l-2.390625 -6.34375q-1.09375 -2.890625 -1.625 -4.75q-0.4375 2.203125 -1.234375 4.375l-2.515625 6.71875zm26.703125 9.40625l-2.8125 0l0 -17.921875q-1.015625 0.96875 -2.671875 1.9375q-1.640625 0.96875 -2.953125 1.453125l0 -2.71875q2.359375 -1.109375 4.125 -2.6875q1.765625 -1.578125 2.5 -3.0625l1.8125 0l0 23.0z" fill-rule="nonzero"></path><path fill="#fff2cc" d="m384.36484 544.40155l0 0c0 -23.743896 19.727661 -42.992096 44.06299 -42.992096l0 0c11.686218 0 22.89383 4.5295105 31.157227 12.592072c8.263428 8.062622 12.905762 18.997803 12.905762 30.400024l0 0c0 23.743896 -19.727661 42.992126 -44.06299 42.992126l0 0c-24.335327 0 -44.06299 -19.24823 -44.06299 -42.992126z" fill-rule="nonzero"></path><path stroke="#666666" stroke-width="1.0" stroke-linejoin="round" stroke-linecap="butt" d="m384.36484 544.40155l0 0c0 -23.743896 19.727661 -42.992096 44.06299 -42.992096l0 0c11.686218 0 22.89383 4.5295105 31.157227 12.592072c8.263428 8.062622 12.905762 18.997803 12.905762 30.400024l0 0c0 23.743896 -19.727661 42.992126 -44.06299 42.992126l0 0c-24.335327 0 -44.06299 -19.24823 -44.06299 -42.992126z" fill-rule="nonzero"></path><path fill="#000000" fill-opacity="0.0" d="m384.36484 508.29135l88.12598 0l0 72.22049l-88.12598 0z" fill-rule="nonzero"></path><path fill="#000000" d="m408.81064 556.1216l8.796875 -22.90625l3.265625 0l9.375 22.90625l-3.453125 0l-2.671875 -6.9375l-9.578125 0l-2.515625 6.9375l-3.21875 0zm6.609375 -9.40625l7.765625 0l-2.390625 -6.34375q-1.09375 -2.890625 -1.625 -4.75q-0.4375 2.203125 -1.234375 4.375l-2.515625 6.71875zm26.703125 9.40625l-2.8125 0l0 -17.921875q-1.015625 0.96875 -2.671875 1.9375q-1.640625 0.96875 -2.953125 1.453125l0 -2.71875q2.359375 -1.109375 4.125 -2.6875q1.765625 -1.578125 2.5 -3.0625l1.8125 0l0 23.0z" fill-rule="nonzero"></path><path fill="#fff2cc" d="m494.81628 544.40155l0 0c0 -23.743896 19.727661 -42.992096 44.06299 -42.992096l0 0c11.686218 0 22.893799 4.5295105 31.157227 12.592072c8.263428 8.062622 12.905762 18.997803 12.905762 30.400024l0 0c0 23.743896 -19.727661 42.992126 -44.06299 42.992126l0 0c-24.335327 0 -44.06299 -19.24823 -44.06299 -42.992126z" fill-rule="nonzero"></path><path stroke="#666666" stroke-width="1.0" stroke-linejoin="round" stroke-linecap="butt" d="m494.81628 544.40155l0 0c0 -23.743896 19.727661 -42.992096 44.06299 -42.992096l0 0c11.686218 0 22.893799 4.5295105 31.157227 12.592072c8.263428 8.062622 12.905762 18.997803 12.905762 30.400024l0 0c0 23.743896 -19.727661 42.992126 -44.06299 42.992126l0 0c-24.335327 0 -44.06299 -19.24823 -44.06299 -42.992126z" fill-rule="nonzero"></path><path fill="#000000" fill-opacity="0.0" d="m494.81628 508.29135l88.12598 0l0 72.22049l-88.12598 0z" fill-rule="nonzero"></path><path fill="#000000" d="m519.2621 556.1216l8.796875 -22.90625l3.265625 0l9.375 22.90625l-3.453125 0l-2.671875 -6.9375l-9.578125 0l-2.515625 6.9375l-3.21875 0zm6.609375 -9.40625l7.765625 0l-2.390625 -6.34375q-1.09375 -2.890625 -1.625 -4.75q-0.4375 2.203125 -1.234375 4.375l-2.515625 6.71875zm26.703125 9.40625l-2.8125 0l0 -17.921875q-1.015625 0.96875 -2.671875 1.9375q-1.640625 0.96875 -2.953125 1.453125l0 -2.71875q2.359375 -1.109375 4.125 -2.6875q1.765625 -1.578125 2.5 -3.0625l1.8125 0l0 23.0z" fill-rule="nonzero"></path><path fill="#fff2cc" d="m605.2677 544.40155l0 0c0 -23.743896 19.727661 -42.992096 44.06299 -42.992096l0 0c11.686279 0 22.89386 4.5295105 31.157288 12.592072c8.263367 8.062622 12.905701 18.997803 12.905701 30.400024l0 0c0 23.743896 -19.727661 42.992126 -44.06299 42.992126l0 0c-24.335327 0 -44.06299 -19.24823 -44.06299 -42.992126z" fill-rule="nonzero"></path><path stroke="#666666" stroke-width="1.0" stroke-linejoin="round" stroke-linecap="butt" d="m605.2677 544.40155l0 0c0 -23.743896 19.727661 -42.992096 44.06299 -42.992096l0 0c11.686279 0 22.89386 4.5295105 31.157288 12.592072c8.263367 8.062622 12.905701 18.997803 12.905701 30.400024l0 0c0 23.743896 -19.727661 42.992126 -44.06299 42.992126l0 0c-24.335327 0 -44.06299 -19.24823 -44.06299 -42.992126z" fill-rule="nonzero"></path><path fill="#000000" fill-opacity="0.0" d="m605.2677 508.29135l88.12598 0l0 72.22049l-88.12598 0z" fill-rule="nonzero"></path><path fill="#000000" d="m629.7135 556.1216l8.796875 -22.90625l3.265625 0l9.375 22.90625l-3.453125 0l-2.671875 -6.9375l-9.578125 0l-2.515625 6.9375l-3.21875 0zm6.609375 -9.40625l7.765625 0l-2.390625 -6.34375q-1.09375 -2.890625 -1.625 -4.75q-0.4375 2.203125 -1.234375 4.375l-2.515625 6.71875zm26.703125 9.40625l-2.8125 0l0 -17.921875q-1.015625 0.96875 -2.671875 1.9375q-1.640625 0.96875 -2.953125 1.453125l0 -2.71875q2.359375 -1.109375 4.125 -2.6875q1.765625 -1.578125 2.5 -3.0625l1.8125 0l0 23.0z" fill-rule="nonzero"></path><path fill="#fff2cc" d="m715.7192 544.7218l0 0c0 -23.743896 19.727661 -42.992157 44.06299 -42.992157l0 0c11.686218 0 22.893799 4.529541 31.157227 12.592133c8.263428 8.062561 12.905762 18.997803 12.905762 30.400024l0 0c0 23.743896 -19.727661 42.992126 -44.06299 42.992126l0 0c-24.335327 0 -44.06299 -19.24823 -44.06299 -42.992126z" fill-rule="nonzero"></path><path stroke="#666666" stroke-width="1.0" stroke-linejoin="round" stroke-linecap="butt" d="m715.7192 544.7218l0 0c0 -23.743896 19.727661 -42.992157 44.06299 -42.992157l0 0c11.686218 0 22.893799 4.529541 31.157227 12.592133c8.263428 8.062561 12.905762 18.997803 12.905762 30.400024l0 0c0 23.743896 -19.727661 42.992126 -44.06299 42.992126l0 0c-24.335327 0 -44.06299 -19.24823 -44.06299 -42.992126z" fill-rule="nonzero"></path><path fill="#000000" fill-opacity="0.0" d="m715.7192 508.61154l88.12598 0l0 72.22049l-88.12598 0z" fill-rule="nonzero"></path><path fill="#000000" d="m740.165 556.4418l8.796875 -22.90625l3.265625 0l9.375 22.90625l-3.453125 0l-2.671875 -6.9375l-9.578125 0l-2.515625 6.9375l-3.21875 0zm6.609375 -9.40625l7.765625 0l-2.390625 -6.34375q-1.09375 -2.890625 -1.625 -4.75q-0.4375 2.203125 -1.234375 4.375l-2.515625 6.71875zm26.703125 9.40625l-2.8125 0l0 -17.921875q-1.015625 0.96875 -2.671875 1.9375q-1.640625 0.96875 -2.953125 1.453125l0 -2.71875q2.359375 -1.109375 4.125 -2.6875q1.765625 -1.578125 2.5 -3.0625l1.8125 0l0 23.0z" fill-rule="nonzero"></path></g></svg>

