<?xml version="1.0" standalone="yes"?>

<svg version="1.1" viewBox="0.0 0.0 960.0 720.0" fill="none" stroke="none" stroke-linecap="square" stroke-miterlimit="10" xmlns="http://www.w3.org/2000/svg" xmlns:xlink="http://www.w3.org/1999/xlink"><clipPath id="p.0"><path d="m0 0l960.0 0l0 720.0l-960.0 0l0 -720.0z" clip-rule="nonzero"></path></clipPath><g clip-path="url(#p.0)"><path fill="#000000" fill-opacity="0.0" d="m0 0l960.0 0l0 720.0l-960.0 0z" fill-rule="nonzero"></path><path fill="#efefef" d="m-970.3858 31.165354l884.4094 0l0 643.71655l-884.4094 0z" fill-rule="nonzero"></path><path stroke="#666666" stroke-width="1.0" stroke-linejoin="round" stroke-linecap="butt" d="m-970.3858 31.165354l884.4094 0l0 643.71655l-884.4094 0z" fill-rule="nonzero"></path><path fill="#000000" fill-opacity="0.0" d="m-597.8478 31.165354l144.0 0l0 72.220474l-144.0 0z" fill-rule="nonzero"></path><path fill="#000000" d="m-547.2306 75.81559l6.59375 -17.187496l2.453125 0l7.03125 17.187496l-2.59375 0l-2.0 -5.203125l-7.1875 0l-1.890625 5.203125l-2.40625 0zm4.953125 -7.0625l5.828125 0l-1.796875 -4.75q-0.8125 -2.1718712 -1.21875 -3.5624962q-0.328125 1.65625 -0.921875 3.28125l-1.890625 5.031246zm12.6640625 11.828125l0 -17.218746l1.921875 0l0 1.6249962q0.6875 -0.953125 1.53125 -1.4218712q0.859375 -0.484375 2.078125 -0.484375q1.59375 0 2.8125 0.828125q1.21875 0.8124962 1.84375 2.3124962q0.625 1.5 0.625 3.28125q0 1.90625 -0.6875 3.4375q-0.6875 1.53125 -2.0 2.34375q-1.296875 0.8125 -2.734375 0.8125q-1.0625 0 -1.90625 -0.4375q-0.828125 -0.453125 -1.375 -1.140625l0 6.0625l-2.109375 0zm1.921875 -10.921875q0 2.40625 0.96875 3.5625q0.96875 1.140625 2.359375 1.140625q1.40625 0 2.40625 -1.1875q1.0 -1.1875 1.0 -3.6875q0 -2.375 -0.984375 -3.5625q-0.96875 -1.1875 -2.328125 -1.1875q-1.359375 0 -2.390625 1.265625q-1.03125 1.25 -1.03125 3.65625zm11.425781 10.921875l0 -17.218746l1.921875 0l0 1.6249962q0.6875 -0.953125 1.53125 -1.4218712q0.859375 -0.484375 2.078125 -0.484375q1.59375 0 2.8125 0.828125q1.21875 0.8124962 1.84375 2.3124962q0.625 1.5 0.625 3.28125q0 1.90625 -0.6875 3.4375q-0.6875 1.53125 -2.0 2.34375q-1.296875 0.8125 -2.734375 0.8125q-1.0625 0 -1.90625 -0.4375q-0.828125 -0.453125 -1.375 -1.140625l0 6.0625l-2.109375 0zm1.921875 -10.921875q0 2.40625 0.96875 3.5625q0.96875 1.140625 2.359375 1.140625q1.40625 0 2.40625 -1.1875q1.0 -1.1875 1.0 -3.6875q0 -2.375 -0.984375 -3.5625q-0.96875 -1.1875 -2.328125 -1.1875q-1.359375 0 -2.390625 1.265625q-1.03125 1.25 -1.03125 3.65625z" fill-rule="nonzero"></path><path fill="#d9d9d9" d="m-923.1102 103.385826l789.8583 0l0 94.58268l-789.8583 0z" fill-rule="nonzero"></path><path stroke="#999999" stroke-width="1.0" stroke-linejoin="round" stroke-linecap="butt" d="m-923.1102 103.385826l789.8583 0l0 94.58268l-789.8583 0z" fill-rule="nonzero"></path><path fill="#000000" fill-opacity="0.0" d="m-597.8478 114.56693l144.0 0l0 72.22047l-144.0 0z" fill-rule="nonzero"></path><path fill="#000000" d="m-580.7208 159.21716l0 -17.1875l2.328125 0l9.03125 13.5l0 -13.5l2.171875 0l0 17.1875l-2.328125 0l-9.015625 -13.5l0 13.5l-2.1875 0zm25.207031 -1.53125q-1.171875 0.984375 -2.265625 1.40625q-1.078125 0.40625 -2.3125 0.40625q-2.046875 0 -3.15625 -1.0q-1.09375 -1.0 -1.09375 -2.5625q0 -0.921875 0.40625 -1.671875q0.421875 -0.75 1.09375 -1.203125q0.671875 -0.46875 1.515625 -0.703125q0.625 -0.15625 1.875 -0.3125q2.5625 -0.3125 3.765625 -0.734375q0.015625 -0.421875 0.015625 -0.546875q0 -1.28125 -0.609375 -1.8125q-0.796875 -0.71875 -2.390625 -0.71875q-1.5 0 -2.203125 0.53125q-0.703125 0.515625 -1.046875 1.84375l-2.0625 -0.28125q0.28125 -1.328125 0.921875 -2.140625q0.640625 -0.8125 1.859375 -1.25q1.21875 -0.453125 2.828125 -0.453125q1.59375 0 2.59375 0.375q1.0 0.375 1.46875 0.953125q0.46875 0.5625 0.65625 1.4375q0.09375 0.53125 0.09375 1.9375l0 2.8125q0 2.9375 0.140625 3.71875q0.140625 0.78125 0.53125 1.5l-2.203125 0q-0.328125 -0.65625 -0.421875 -1.53125zm-0.171875 -4.71875q-1.15625 0.46875 -3.453125 0.796875q-1.296875 0.1875 -1.84375 0.421875q-0.53125 0.234375 -0.828125 0.6875q-0.28125 0.453125 -0.28125 1.0q0 0.84375 0.625 1.40625q0.640625 0.5625 1.875 0.5625q1.21875 0 2.171875 -0.53125q0.953125 -0.53125 1.390625 -1.453125q0.34375 -0.71875 0.34375 -2.109375l0 -0.78125zm8.863281 6.25l-4.734375 -12.453125l2.21875 0l2.671875 7.453125q0.4375 1.21875 0.796875 2.515625q0.28125 -0.984375 0.78125 -2.375l2.765625 -7.59375l2.171875 0l-4.703125 12.453125l-1.96875 0zm8.546875 -14.75l0 -2.4375l2.109375 0l0 2.4375l-2.109375 0zm0 14.75l0 -12.453125l2.109375 0l0 12.453125l-2.109375 0zm4.9414062 1.03125l2.046875 0.3125q0.125 0.9375 0.71875 1.375q0.78125 0.59375 2.140625 0.59375q1.46875 0 2.265625 -0.59375q0.796875 -0.578125 1.078125 -1.640625q0.15625 -0.640625 0.140625 -2.703125q-1.375 1.625 -3.4375 1.625q-2.5625 0 -3.96875 -1.84375q-1.40625 -1.859375 -1.40625 -4.453125q0 -1.78125 0.640625 -3.28125q0.640625 -1.515625 1.859375 -2.328125q1.234375 -0.828125 2.890625 -0.828125q2.203125 0 3.625 1.78125l0 -1.5l1.953125 0l0 10.765625q0 2.90625 -0.59375 4.109375q-0.59375 1.21875 -1.875 1.921875q-1.28125 0.703125 -3.15625 0.703125q-2.234375 0 -3.609375 -1.0q-1.359375 -1.0 -1.3125 -3.015625zm1.734375 -7.484375q0 2.453125 0.96875 3.578125q0.984375 1.125 2.453125 1.125q1.453125 0 2.4375 -1.109375q0.984375 -1.125 0.984375 -3.515625q0 -2.28125 -1.015625 -3.4375q-1.015625 -1.171875 -2.453125 -1.171875q-1.40625 0 -2.390625 1.140625q-0.984375 1.140625 -0.984375 3.390625zm20.113281 4.921875q-1.171875 0.984375 -2.265625 1.40625q-1.078125 0.40625 -2.3125 0.40625q-2.046875 0 -3.15625 -1.0q-1.09375 -1.0 -1.09375 -2.5625q0 -0.921875 0.40625 -1.671875q0.421875 -0.75 1.09375 -1.203125q0.671875 -0.46875 1.515625 -0.703125q0.625 -0.15625 1.875 -0.3125q2.5625 -0.3125 3.765625 -0.734375q0.015625 -0.421875 0.015625 -0.546875q0 -1.28125 -0.609375 -1.8125q-0.796875 -0.71875 -2.390625 -0.71875q-1.5 0 -2.203125 0.53125q-0.703125 0.515625 -1.046875 1.84375l-2.0625 -0.28125q0.28125 -1.328125 0.921875 -2.140625q0.640625 -0.8125 1.859375 -1.25q1.21875 -0.453125 2.828125 -0.453125q1.59375 0 2.59375 0.375q1.0 0.375 1.46875 0.953125q0.46875 0.5625 0.65625 1.4375q0.09375 0.53125 0.09375 1.9375l0 2.8125q0 2.9375 0.140625 3.71875q0.140625 0.78125 0.53125 1.5l-2.203125 0q-0.328125 -0.65625 -0.421875 -1.53125zm-0.171875 -4.71875q-1.15625 0.46875 -3.453125 0.796875q-1.296875 0.1875 -1.84375 0.421875q-0.53125 0.234375 -0.828125 0.6875q-0.28125 0.453125 -0.28125 1.0q0 0.84375 0.625 1.40625q0.640625 0.5625 1.875 0.5625q1.21875 0 2.171875 -0.53125q0.953125 -0.53125 1.390625 -1.453125q0.34375 -0.71875 0.34375 -2.109375l0 -0.78125zm10.003906 4.359375l0.3125 1.859375q-0.890625 0.203125 -1.59375 0.203125q-1.15625 0 -1.796875 -0.359375q-0.625 -0.375 -0.890625 -0.96875q-0.25 -0.59375 -0.25 -2.484375l0 -7.171875l-1.546875 0l0 -1.640625l1.546875 0l0 -3.078125l2.09375 -1.265625l0 4.34375l2.125 0l0 1.640625l-2.125 0l0 7.28125q0 0.90625 0.109375 1.171875q0.125 0.25 0.375 0.40625q0.25 0.140625 0.71875 0.140625q0.34375 0 0.921875 -0.078125zm2.0742188 -12.859375l0 -2.4375l2.109375 0l0 2.4375l-2.109375 0zm0 14.75l0 -12.453125l2.109375 0l0 12.453125l-2.109375 0zm4.5351562 -6.21875q0 -3.46875 1.921875 -5.125q1.609375 -1.390625 3.921875 -1.390625q2.5625 0 4.1875 1.6875q1.625 1.6875 1.625 4.640625q0 2.40625 -0.71875 3.78125q-0.71875 1.375 -2.09375 2.140625q-1.375 0.765625 -3.0 0.765625q-2.625 0 -4.234375 -1.671875q-1.609375 -1.6875 -1.609375 -4.828125zm2.171875 0q0 2.390625 1.03125 3.578125q1.046875 1.1875 2.640625 1.1875q1.5625 0 2.609375 -1.1875q1.046875 -1.203125 1.046875 -3.65625q0 -2.3125 -1.0625 -3.5q-1.046875 -1.1875 -2.59375 -1.1875q-1.59375 0 -2.640625 1.1875q-1.03125 1.1875 -1.03125 3.578125zm11.957031 6.21875l0 -12.453125l1.90625 0l0 1.78125q1.375 -2.0625 3.953125 -2.0625q1.125 0 2.0625 0.40625q0.953125 0.40625 1.421875 1.0625q0.46875 0.65625 0.65625 1.5625q0.125 0.578125 0.125 2.046875l0 7.65625l-2.109375 0l0 -7.578125q0 -1.28125 -0.25 -1.921875q-0.25 -0.640625 -0.875 -1.015625q-0.625 -0.390625 -1.46875 -0.390625q-1.34375 0 -2.328125 0.859375q-0.984375 0.859375 -0.984375 3.25l0 6.796875l-2.109375 0z" fill-rule="nonzero"></path><path fill="#d9d9d9" d="m-923.1102 238.67192l789.8583 0l0 400.72437l-789.8583 0z" fill-rule="nonzero"></path><path stroke="#999999" stroke-width="1.0" stroke-linejoin="round" stroke-linecap="butt" d="m-923.1102 238.67192l789.8583 0l0 400.72437l-789.8583 0z" fill-rule="nonzero"></path><path fill="#000000" fill-opacity="0.0" d="m-597.8478 238.67192l144.0 0l0 72.220474l-144.0 0z" fill-rule="nonzero"></path><path fill="#000000" d="m-553.7677 277.2909l2.28125 0.578125q-0.71875 2.796875 -2.578125 4.28125q-1.859375 1.46875 -4.546875 1.46875q-2.765625 0 -4.515625 -1.125q-1.734375 -1.140625 -2.640625 -3.28125q-0.90625 -2.15625 -0.90625 -4.609375q0 -2.6875 1.015625 -4.6875q1.03125 -2.0 2.921875 -3.03125q1.890625 -1.03125 4.171875 -1.03125q2.578125 0 4.328125 1.3125q1.765625 1.3125 2.453125 3.6875l-2.234375 0.53125q-0.609375 -1.875 -1.75 -2.734375q-1.125 -0.859375 -2.84375 -0.859375q-1.984375 0 -3.3125 0.953125q-1.328125 0.953125 -1.875 2.546875q-0.53125 1.59375 -0.53125 3.296875q0 2.1875 0.625 3.828125q0.640625 1.640625 1.984375 2.453125q1.359375 0.796875 2.921875 0.796875q1.921875 0 3.234375 -1.09375q1.328125 -1.109375 1.796875 -3.28125zm4.0195312 -0.1875q0 -3.46875 1.921875 -5.125q1.609375 -1.390625 3.921875 -1.390625q2.5625 0 4.1875 1.6875q1.625 1.6875 1.625 4.640625q0 2.40625 -0.71875 3.78125q-0.71875 1.375 -2.09375 2.140625q-1.375 0.765625 -3.0 0.765625q-2.625 0 -4.234375 -1.671875q-1.609375 -1.6875 -1.609375 -4.828125zm2.171875 0q0 2.390625 1.03125 3.578125q1.046875 1.1875 2.640625 1.1875q1.5625 0 2.609375 -1.1875q1.046875 -1.203125 1.046875 -3.65625q0 -2.3125 -1.0625 -3.5q-1.046875 -1.1875 -2.59375 -1.1875q-1.59375 0 -2.640625 1.1875q-1.03125 1.1875 -1.03125 3.578125zm11.957031 6.21875l0 -12.453125l1.90625 0l0 1.78125q1.375 -2.0625 3.953125 -2.0625q1.125 0 2.0625 0.40625q0.953125 0.40625 1.421875 1.0625q0.46875 0.65625 0.65625 1.5625q0.125 0.578125 0.125 2.046875l0 7.65625l-2.109375 0l0 -7.578125q0 -1.28125 -0.25 -1.921875q-0.25 -0.640625 -0.875 -1.015625q-0.625 -0.390625 -1.46875 -0.390625q-1.34375 0 -2.328125 0.859375q-0.984375 0.859375 -0.984375 3.25l0 6.796875l-2.109375 0zm17.957031 -1.890625l0.3125 1.859375q-0.890625 0.203125 -1.59375 0.203125q-1.15625 0 -1.796875 -0.359375q-0.625 -0.375 -0.890625 -0.96875q-0.25 -0.59375 -0.25 -2.484375l0 -7.171875l-1.546875 0l0 -1.640625l1.546875 0l0 -3.078125l2.09375 -1.265625l0 4.34375l2.125 0l0 1.640625l-2.125 0l0 7.28125q0 0.90625 0.109375 1.171875q0.125 0.25 0.375 0.40625q0.25 0.140625 0.71875 0.140625q0.34375 0 0.921875 -0.078125zm10.589844 -2.125l2.171875 0.28125q-0.515625 1.90625 -1.90625 2.96875q-1.390625 1.046875 -3.5625 1.046875q-2.734375 0 -4.34375 -1.671875q-1.59375 -1.6875 -1.59375 -4.734375q0 -3.140625 1.609375 -4.875q1.625 -1.734375 4.203125 -1.734375q2.5 0 4.078125 1.703125q1.59375 1.703125 1.59375 4.78125q0 0.1875 -0.015625 0.5625l-9.28125 0q0.109375 2.046875 1.15625 3.140625q1.046875 1.09375 2.609375 1.09375q1.15625 0 1.96875 -0.609375q0.828125 -0.609375 1.3125 -1.953125zm-6.9375 -3.40625l6.953125 0q-0.140625 -1.5625 -0.796875 -2.359375q-1.0 -1.21875 -2.609375 -1.21875q-1.453125 0 -2.453125 0.984375q-0.984375 0.96875 -1.09375 2.59375zm11.753906 7.421875l0 -12.453125l1.90625 0l0 1.78125q1.375 -2.0625 3.953125 -2.0625q1.125 0 2.0625 0.40625q0.953125 0.40625 1.421875 1.0625q0.46875 0.65625 0.65625 1.5625q0.125 0.578125 0.125 2.046875l0 7.65625l-2.109375 0l0 -7.578125q0 -1.28125 -0.25 -1.921875q-0.25 -0.640625 -0.875 -1.015625q-0.625 -0.390625 -1.46875 -0.390625q-1.34375 0 -2.328125 0.859375q-0.984375 0.859375 -0.984375 3.25l0 6.796875l-2.109375 0zm17.957031 -1.890625l0.3125 1.859375q-0.890625 0.203125 -1.59375 0.203125q-1.15625 0 -1.796875 -0.359375q-0.625 -0.375 -0.890625 -0.96875q-0.25 -0.59375 -0.25 -2.484375l0 -7.171875l-1.546875 0l0 -1.640625l1.546875 0l0 -3.078125l2.09375 -1.265625l0 4.34375l2.125 0l0 1.640625l-2.125 0l0 7.28125q0 0.90625 0.109375 1.171875q0.125 0.25 0.375 0.40625q0.25 0.140625 0.71875 0.140625q0.34375 0 0.921875 -0.078125z" fill-rule="nonzero"></path><path fill="#cccccc" d="m-881.0131 310.8924l710.3307 0l0 291.2126l-710.3307 0z" fill-rule="nonzero"></path><path stroke="#999999" stroke-width="1.0" stroke-linejoin="round" stroke-linecap="butt" d="m-881.0131 310.8924l710.3307 0l0 291.2126l-710.3307 0z" fill-rule="nonzero"></path><path fill="#000000" fill-opacity="0.0" d="m-597.8478 310.8924l144.0 0l0 72.22046l-144.0 0z" fill-rule="nonzero"></path><path fill="#000000" d="m-542.756 355.54263l0 -17.1875l2.265625 0l0 15.15625l8.46875 0l0 2.03125l-10.734375 0zm13.175781 -14.75l0 -2.4375l2.109375 0l0 2.4375l-2.109375 0zm0 14.75l0 -12.453125l2.109375 0l0 12.453125l-2.109375 0zm4.4726562 -3.71875l2.09375 -0.328125q0.171875 1.25 0.96875 1.921875q0.8125 0.671875 2.25 0.671875q1.453125 0 2.15625 -0.59375q0.703125 -0.59375 0.703125 -1.390625q0 -0.71875 -0.625 -1.125q-0.421875 -0.28125 -2.15625 -0.71875q-2.3125 -0.578125 -3.21875 -1.0q-0.890625 -0.4375 -1.359375 -1.1875q-0.453125 -0.765625 -0.453125 -1.671875q0 -0.828125 0.375 -1.53125q0.390625 -0.71875 1.046875 -1.1875q0.484375 -0.359375 1.328125 -0.609375q0.859375 -0.265625 1.828125 -0.265625q1.46875 0 2.578125 0.421875q1.109375 0.421875 1.625 1.15625q0.53125 0.71875 0.734375 1.921875l-2.0625 0.28125q-0.140625 -0.96875 -0.8125 -1.5q-0.671875 -0.546875 -1.90625 -0.546875q-1.453125 0 -2.078125 0.484375q-0.625 0.484375 -0.625 1.125q0 0.40625 0.265625 0.734375q0.25 0.34375 0.8125 0.5625q0.3125 0.125 1.859375 0.546875q2.234375 0.59375 3.109375 0.984375q0.890625 0.375 1.390625 1.109375q0.515625 0.71875 0.515625 1.796875q0 1.046875 -0.625 1.984375q-0.609375 0.9375 -1.765625 1.453125q-1.15625 0.5 -2.625 0.5q-2.421875 0 -3.703125 -1.0q-1.265625 -1.015625 -1.625 -3.0zm17.453125 1.828125l0.3125 1.859375q-0.890625 0.203125 -1.59375 0.203125q-1.15625 0 -1.796875 -0.359375q-0.625 -0.375 -0.890625 -0.96875q-0.25 -0.59375 -0.25 -2.484375l0 -7.171875l-1.546875 0l0 -1.640625l1.546875 0l0 -3.078125l2.09375 -1.265625l0 4.34375l2.125 0l0 1.640625l-2.125 0l0 7.28125q0 0.90625 0.109375 1.171875q0.125 0.25 0.375 0.40625q0.25 0.140625 0.71875 0.140625q0.34375 0 0.921875 -0.078125z" fill-rule="nonzero"></path><path fill="#b7b7b7" d="m-847.87665 387.93964l88.12598 0l0 85.98425l-88.12598 0z" fill-rule="nonzero"></path><path stroke="#999999" stroke-width="1.0" stroke-linejoin="round" stroke-linecap="butt" d="m-847.87665 387.93964l88.12598 0l0 85.98425l-88.12598 0z" fill-rule="nonzero"></path><path fill="#b7b7b7" d="m-847.87665 496.35696l88.12598 0l0 85.98422l-88.12598 0z" fill-rule="nonzero"></path><path stroke="#999999" stroke-width="1.0" stroke-linejoin="round" stroke-linecap="butt" d="m-847.87665 496.35696l88.12598 0l0 85.98422l-88.12598 0z" fill-rule="nonzero"></path><path fill="#b7b7b7" d="m-731.9344 387.93964l88.12598 0l0 85.98425l-88.12598 0z" fill-rule="nonzero"></path><path stroke="#999999" stroke-width="1.0" stroke-linejoin="round" stroke-linecap="butt" d="m-731.9344 387.93964l88.12598 0l0 85.98425l-88.12598 0z" fill-rule="nonzero"></path><path fill="#b7b7b7" d="m-731.9344 496.35696l88.12598 0l0 85.98422l-88.12598 0z" fill-rule="nonzero"></path><path stroke="#999999" stroke-width="1.0" stroke-linejoin="round" stroke-linecap="butt" d="m-731.9344 496.35696l88.12598 0l0 85.98422l-88.12598 0z" fill-rule="nonzero"></path><path fill="#b7b7b7" d="m-621.4829 496.03674l88.12598 0l0 85.98425l-88.12598 0z" fill-rule="nonzero"></path><path stroke="#999999" stroke-width="1.0" stroke-linejoin="round" stroke-linecap="butt" d="m-621.4829 496.03674l88.12598 0l0 85.98425l-88.12598 0z" fill-rule="nonzero"></path><path fill="#b7b7b7" d="m-621.4829 387.93964l88.12598 0l0 85.98425l-88.12598 0z" fill-rule="nonzero"></path><path stroke="#999999" stroke-width="1.0" stroke-linejoin="round" stroke-linecap="butt" d="m-621.4829 387.93964l88.12598 0l0 85.98425l-88.12598 0z" fill-rule="nonzero"></path><path fill="#b7b7b7" d="m-511.0315 387.93964l88.12598 0l0 85.98425l-88.12598 0z" fill-rule="nonzero"></path><path stroke="#999999" stroke-width="1.0" stroke-linejoin="round" stroke-linecap="butt" d="m-511.0315 387.93964l88.12598 0l0 85.98425l-88.12598 0z" fill-rule="nonzero"></path><path fill="#b7b7b7" d="m-511.0315 496.03674l88.12598 0l0 85.98425l-88.12598 0z" fill-rule="nonzero"></path><path stroke="#999999" stroke-width="1.0" stroke-linejoin="round" stroke-linecap="butt" d="m-511.0315 496.03674l88.12598 0l0 85.98425l-88.12598 0z" fill-rule="nonzero"></path><path fill="#b7b7b7" d="m-400.58005 496.03674l88.12598 0l0 85.98425l-88.12598 0z" fill-rule="nonzero"></path><path stroke="#999999" stroke-width="1.0" stroke-linejoin="round" stroke-linecap="butt" d="m-400.58005 496.03674l88.12598 0l0 85.98425l-88.12598 0z" fill-rule="nonzero"></path><path fill="#b7b7b7" d="m1093.252 463.042l88.12598 0l0 85.98425l-88.12598 0z" fill-rule="nonzero"></path><path stroke="#999999" stroke-width="1.0" stroke-linejoin="round" stroke-linecap="butt" d="m1093.252 463.042l88.12598 0l0 85.98425l-88.12598 0z" fill-rule="nonzero"></path><path fill="#b7b7b7" d="m-400.58005 387.93964l88.12598 0l0 85.98425l-88.12598 0z" fill-rule="nonzero"></path><path stroke="#999999" stroke-width="1.0" stroke-linejoin="round" stroke-linecap="butt" d="m-400.58005 387.93964l88.12598 0l0 85.98425l-88.12598 0z" fill-rule="nonzero"></path><path fill="#b7b7b7" d="m1093.252 354.62466l88.12598 0l0 85.98425l-88.12598 0z" fill-rule="nonzero"></path><path stroke="#999999" stroke-width="1.0" stroke-linejoin="round" stroke-linecap="butt" d="m1093.252 354.62466l88.12598 0l0 85.98425l-88.12598 0z" fill-rule="nonzero"></path><path fill="#d9d9d9" d="m438.33728 174.79396l0 0c0 -27.892548 22.57611 -50.503937 50.4252 -50.503937l0 0c13.373566 0 26.199432 5.320938 35.655975 14.792267c9.456543 9.471313 14.769226 22.3172 14.769226 35.71167l0 0c0 27.892548 -22.576172 50.503937 -50.4252 50.503937l0 0c-27.84909 0 -50.4252 -22.61139 -50.4252 -50.503937z" fill-rule="nonzero"></path><path stroke="#666666" stroke-width="2.0" stroke-linejoin="round" stroke-linecap="butt" d="m438.33728 174.79396l0 0c0 -27.892548 22.57611 -50.503937 50.4252 -50.503937l0 0c13.373566 0 26.199432 5.320938 35.655975 14.792267c9.456543 9.471313 14.769226 22.3172 14.769226 35.71167l0 0c0 27.892548 -22.576172 50.503937 -50.4252 50.503937l0 0c-27.84909 0 -50.4252 -22.61139 -50.4252 -50.503937z" fill-rule="nonzero"></path><path fill="#d9d9d9" d="m233.71916 367.90683l0 0c0 -27.892548 22.576126 -50.503937 50.425186 -50.503937l0 0c13.373596 0 26.199463 5.320923 35.656006 14.792267c9.4565735 9.471313 14.769196 22.3172 14.769196 35.71167l0 0c0 27.892548 -22.576141 50.503937 -50.4252 50.503937l0 0c-27.84906 0 -50.425186 -22.61139 -50.425186 -50.503937z" fill-rule="nonzero"></path><path stroke="#666666" stroke-width="2.0" stroke-linejoin="round" stroke-linecap="butt" d="m233.71916 367.90683l0 0c0 -27.892548 22.576126 -50.503937 50.425186 -50.503937l0 0c13.373596 0 26.199463 5.320923 35.656006 14.792267c9.4565735 9.471313 14.769196 22.3172 14.769196 35.71167l0 0c0 27.892548 -22.576141 50.503937 -50.4252 50.503937l0 0c-27.84906 0 -50.425186 -22.61139 -50.425186 -50.503937z" fill-rule="nonzero"></path><path fill="#d9d9d9" d="m636.9042 367.90683l0 0c0 -27.892548 22.576172 -50.503937 50.425232 -50.503937l0 0c13.373596 0 26.199402 5.320923 35.656006 14.792267c9.456543 9.471313 14.769165 22.3172 14.769165 35.71167l0 0c0 27.892548 -22.57611 50.503937 -50.42517 50.503937l0 0c-27.84906 0 -50.425232 -22.61139 -50.425232 -50.503937z" fill-rule="nonzero"></path><path stroke="#666666" stroke-width="2.0" stroke-linejoin="round" stroke-linecap="butt" d="m636.9042 367.90683l0 0c0 -27.892548 22.576172 -50.503937 50.425232 -50.503937l0 0c13.373596 0 26.199402 5.320923 35.656006 14.792267c9.456543 9.471313 14.769165 22.3172 14.769165 35.71167l0 0c0 27.892548 -22.57611 50.503937 -50.42517 50.503937l0 0c-27.84906 0 -50.425232 -22.61139 -50.425232 -50.503937z" fill-rule="nonzero"></path><path fill="#d9d9d9" d="m364.9777 545.20605l0 0c0 -27.892578 22.576141 -50.503967 50.4252 -50.503967l0 0c13.373596 0 26.199432 5.3209534 35.656006 14.792267c9.456543 9.471344 14.769196 22.31723 14.769196 35.7117l0 0c0 27.892517 -22.576141 50.503906 -50.4252 50.503906l0 0c-27.84906 0 -50.4252 -22.61139 -50.4252 -50.503906z" fill-rule="nonzero"></path><path stroke="#666666" stroke-width="2.0" stroke-linejoin="round" stroke-linecap="butt" d="m364.9777 545.20605l0 0c0 -27.892578 22.576141 -50.503967 50.4252 -50.503967l0 0c13.373596 0 26.199432 5.3209534 35.656006 14.792267c9.456543 9.471344 14.769196 22.31723 14.769196 35.7117l0 0c0 27.892517 -22.576141 50.503906 -50.4252 50.503906l0 0c-27.84906 0 -50.4252 -22.61139 -50.4252 -50.503906z" fill-rule="nonzero"></path><path fill="#d9d9d9" d="m508.11417 545.20605l0 0c0 -27.892578 22.576141 -50.503967 50.4252 -50.503967l0 0c13.373596 0 26.199463 5.3209534 35.656006 14.792267c9.456543 9.471344 14.769165 22.31723 14.769165 35.7117l0 0c0 27.892517 -22.57611 50.503906 -50.42517 50.503906l0 0c-27.84906 0 -50.4252 -22.61139 -50.4252 -50.503906z" fill-rule="nonzero"></path><path stroke="#666666" stroke-width="2.0" stroke-linejoin="round" stroke-linecap="butt" d="m508.11417 545.20605l0 0c0 -27.892578 22.576141 -50.503967 50.4252 -50.503967l0 0c13.373596 0 26.199463 5.3209534 35.656006 14.792267c9.456543 9.471344 14.769165 22.31723 14.769165 35.7117l0 0c0 27.892517 -22.57611 50.503906 -50.42517 50.503906l0 0c-27.84906 0 -50.4252 -22.61139 -50.4252 -50.503906z" fill-rule="nonzero"></path><path fill="#d9d9d9" d="m636.9042 545.20605l0 0c0 -27.892578 22.576172 -50.503967 50.425232 -50.503967l0 0c13.373596 0 26.199402 5.3209534 35.656006 14.792267c9.456543 9.471344 14.769165 22.31723 14.769165 35.7117l0 0c0 27.892517 -22.57611 50.503906 -50.42517 50.503906l0 0c-27.84906 0 -50.425232 -22.61139 -50.425232 -50.503906z" fill-rule="nonzero"></path><path stroke="#666666" stroke-width="2.0" stroke-linejoin="round" stroke-linecap="butt" d="m636.9042 545.20605l0 0c0 -27.892578 22.576172 -50.503967 50.425232 -50.503967l0 0c13.373596 0 26.199402 5.3209534 35.656006 14.792267c9.456543 9.471344 14.769165 22.31723 14.769165 35.7117l0 0c0 27.892517 -22.57611 50.503906 -50.42517 50.503906l0 0c-27.84906 0 -50.425232 -22.61139 -50.425232 -50.503906z" fill-rule="nonzero"></path><path fill="#d9d9d9" d="m765.6942 545.20605l0 0c0 -27.892578 22.57611 -50.503967 50.425232 -50.503967l0 0c13.373596 0 26.199402 5.3209534 35.655945 14.792267c9.456604 9.471344 14.769226 22.31723 14.769226 35.7117l0 0c0 27.892517 -22.57611 50.503906 -50.42517 50.503906l0 0c-27.849121 0 -50.425232 -22.61139 -50.425232 -50.503906z" fill-rule="nonzero"></path><path stroke="#666666" stroke-width="2.0" stroke-linejoin="round" stroke-linecap="butt" d="m765.6942 545.20605l0 0c0 -27.892578 22.57611 -50.503967 50.425232 -50.503967l0 0c13.373596 0 26.199402 5.3209534 35.655945 14.792267c9.456604 9.471344 14.769226 22.31723 14.769226 35.7117l0 0c0 27.892517 -22.57611 50.503906 -50.42517 50.503906l0 0c-27.849121 0 -50.425232 -22.61139 -50.425232 -50.503906z" fill-rule="nonzero"></path><path fill="#d9d9d9" d="m230.1076 545.20605l0 0c0 -27.892578 22.576141 -50.503967 50.4252 -50.503967l0 0c13.373596 0 26.199432 5.3209534 35.656006 14.792267c9.456543 9.471344 14.769196 22.31723 14.769196 35.7117l0 0c0 27.892517 -22.576141 50.503906 -50.4252 50.503906l0 0c-27.84906 0 -50.4252 -22.61139 -50.4252 -50.503906z" fill-rule="nonzero"></path><path stroke="#666666" stroke-width="2.0" stroke-linejoin="round" stroke-linecap="butt" d="m230.1076 545.20605l0 0c0 -27.892578 22.576141 -50.503967 50.4252 -50.503967l0 0c13.373596 0 26.199432 5.3209534 35.656006 14.792267c9.456543 9.471344 14.769196 22.31723 14.769196 35.7117l0 0c0 27.892517 -22.576141 50.503906 -50.4252 50.503906l0 0c-27.84906 0 -50.4252 -22.61139 -50.4252 -50.503906z" fill-rule="nonzero"></path><path fill="#d9d9d9" d="m93.45538 545.20605l0 0c0 -27.892578 22.576126 -50.503967 50.425186 -50.503967l0 0c13.373596 0 26.199448 5.3209534 35.656006 14.792267c9.456558 9.471344 14.769196 22.31723 14.769196 35.7117l0 0c0 27.892517 -22.576126 50.503906 -50.4252 50.503906l0 0c-27.84906 0 -50.425186 -22.61139 -50.425186 -50.503906z" fill-rule="nonzero"></path><path stroke="#666666" stroke-width="2.0" stroke-linejoin="round" stroke-linecap="butt" d="m93.45538 545.20605l0 0c0 -27.892578 22.576126 -50.503967 50.425186 -50.503967l0 0c13.373596 0 26.199448 5.3209534 35.656006 14.792267c9.456558 9.471344 14.769196 22.31723 14.769196 35.7117l0 0c0 27.892517 -22.576126 50.503906 -50.4252 50.503906l0 0c-27.84906 0 -50.425186 -22.61139 -50.425186 -50.503906z" fill-rule="nonzero"></path><path fill="#000000" fill-opacity="0.0" d="m524.41846 210.50563l127.24408 121.70079" fill-rule="nonzero"></path><path stroke="#000000" stroke-width="3.0" stroke-linejoin="round" stroke-linecap="butt" d="m524.41846 210.50563l127.24408 121.70079" fill-rule="nonzero"></path><path fill="#000000" fill-opacity="0.0" d="m453.10648 210.50563l-133.29135 121.70079" fill-rule="nonzero"></path><path stroke="#000000" stroke-width="3.0" stroke-linejoin="round" stroke-linecap="butt" d="m453.10648 210.50563l-133.29135 121.70079" fill-rule="nonzero"></path><path fill="#000000" fill-opacity="0.0" d="m248.48836 403.6185l-104.59842 91.08661" fill-rule="nonzero"></path><path stroke="#000000" stroke-width="3.0" stroke-linejoin="round" stroke-linecap="butt" d="m248.48836 403.6185l-104.59842 91.08661" fill-rule="nonzero"></path><path fill="#000000" fill-opacity="0.0" d="m284.14435 418.41077l-3.6220398 76.28345" fill-rule="nonzero"></path><path stroke="#000000" stroke-width="3.0" stroke-linejoin="round" stroke-linecap="butt" d="m284.14435 418.41077l-3.6220398 76.28345" fill-rule="nonzero"></path><path fill="#000000" fill-opacity="0.0" d="m319.81235 403.61548l95.590546 91.08661" fill-rule="nonzero"></path><path stroke="#000000" stroke-width="3.0" stroke-linejoin="round" stroke-linecap="butt" d="m319.81235 403.61548l95.590546 91.08661" fill-rule="nonzero"></path><path fill="#000000" fill-opacity="0.0" d="m651.6734 403.6185l-93.13385 91.08661" fill-rule="nonzero"></path><path stroke="#000000" stroke-width="3.0" stroke-linejoin="round" stroke-linecap="butt" d="m651.6734 403.6185l-93.13385 91.08661" fill-rule="nonzero"></path><path fill="#000000" fill-opacity="0.0" d="m687.3294 418.41077l0 76.28345" fill-rule="nonzero"></path><path stroke="#000000" stroke-width="3.0" stroke-linejoin="round" stroke-linecap="butt" d="m687.3294 418.41077l0 76.28345" fill-rule="nonzero"></path><path fill="#000000" fill-opacity="0.0" d="m722.9854 403.6185l93.13385 91.08661" fill-rule="nonzero"></path><path stroke="#000000" stroke-width="3.0" stroke-linejoin="round" stroke-linecap="butt" d="m722.9854 403.6185l93.13385 91.08661" fill-rule="nonzero"></path><path fill="#000000" fill-opacity="0.0" d="m334.56955 82.1601l618.9922 0l0 72.22048l-618.9922 0z" fill-rule="nonzero"></path><path fill="#000000" d="m548.51874 126.81034l0 -17.1875l7.296875 0q2.75 0 4.0 0.46875q1.25 0.46875 2.0 1.65625q0.75 1.171875 0.75 2.703125q0 1.921875 -1.140625 3.1875q-1.140625 1.265625 -3.390625 1.59375q1.125 0.65625 1.84375 1.4375q0.734375 0.78125 1.984375 2.78125l2.09375 3.359375l-4.140625 0l-2.515625 -3.734375q-1.328125 -2.015625 -1.828125 -2.53125q-0.484375 -0.515625 -1.046875 -0.703125q-0.546875 -0.203125 -1.734375 -0.203125l-0.703125 0l0 7.171875l-3.46875 0zm3.46875 -9.921875l2.5625 0q2.5 0 3.109375 -0.203125q0.625 -0.21875 0.96875 -0.734375q0.359375 -0.515625 0.359375 -1.28125q0 -0.875 -0.46875 -1.40625q-0.453125 -0.53125 -1.296875 -0.671875q-0.421875 -0.0625 -2.53125 -0.0625l-2.703125 0l0 4.359375zm13.066406 3.515625q0 -1.640625 0.796875 -3.171875q0.8125 -1.53125 2.296875 -2.34375q1.484375 -0.8125 3.3125 -0.8125q2.828125 0 4.625 1.84375q1.8125 1.828125 1.8125 4.625q0 2.828125 -1.828125 4.6875q-1.828125 1.859375 -4.59375 1.859375q-1.703125 0 -3.265625 -0.765625q-1.546875 -0.78125 -2.359375 -2.265625q-0.796875 -1.5 -0.796875 -3.65625zm3.375 0.1875q0 1.84375 0.875 2.828125q0.875 0.984375 2.171875 0.984375q1.28125 0 2.15625 -0.984375q0.875 -0.984375 0.875 -2.859375q0 -1.828125 -0.875 -2.8125q-0.875 -0.984375 -2.15625 -0.984375q-1.296875 0 -2.171875 0.984375q-0.875 0.984375 -0.875 2.84375zm11.285156 -0.1875q0 -1.640625 0.796875 -3.171875q0.8125 -1.53125 2.296875 -2.34375q1.484375 -0.8125 3.3125 -0.8125q2.828125 0 4.625 1.84375q1.8125 1.828125 1.8125 4.625q0 2.828125 -1.828125 4.6875q-1.828125 1.859375 -4.59375 1.859375q-1.703125 0 -3.265625 -0.765625q-1.546875 -0.78125 -2.359375 -2.265625q-0.796875 -1.5 -0.796875 -3.65625zm3.375 0.1875q0 1.84375 0.875 2.828125q0.875 0.984375 2.171875 0.984375q1.28125 0 2.15625 -0.984375q0.875 -0.984375 0.875 -2.859375q0 -1.828125 -0.875 -2.8125q-0.875 -0.984375 -2.15625 -0.984375q-1.296875 0 -2.171875 0.984375q-0.875 0.984375 -0.875 2.84375zm17.753906 -6.234375l0 2.625l-2.25 0l0 5.015625q0 1.53125 0.0625 1.78125q0.0625 0.25 0.28125 0.421875q0.234375 0.15625 0.5625 0.15625q0.453125 0 1.328125 -0.3125l0.28125 2.546875q-1.15625 0.5 -2.609375 0.5q-0.890625 0 -1.609375 -0.296875q-0.703125 -0.296875 -1.046875 -0.765625q-0.328125 -0.484375 -0.453125 -1.296875q-0.109375 -0.578125 -0.109375 -2.3125l0 -5.4375l-1.515625 0l0 -2.625l1.515625 0l0 -2.46875l3.3125 -1.921875l0 4.390625l2.25 0zm19.957031 6.140625l3.375 1.0625q-0.78125 2.8125 -2.578125 4.1875q-1.796875 1.359375 -4.5625 1.359375q-3.421875 0 -5.625 -2.34375q-2.203125 -2.34375 -2.203125 -6.390625q0 -4.296875 2.203125 -6.65625q2.21875 -2.375 5.828125 -2.375q3.15625 0 5.125 1.859375q1.171875 1.09375 1.765625 3.15625l-3.4375 0.828125q-0.3125 -1.34375 -1.28125 -2.109375q-0.953125 -0.78125 -2.34375 -0.78125q-1.90625 0 -3.09375 1.375q-1.1875 1.375 -1.1875 4.4375q0 3.265625 1.171875 4.65625q1.171875 1.375 3.046875 1.375q1.375 0 2.375 -0.875q1.0 -0.890625 1.421875 -2.765625zm5.5664062 -0.09375q0 -1.640625 0.796875 -3.171875q0.8125 -1.53125 2.296875 -2.34375q1.484375 -0.8125 3.3125 -0.8125q2.828125 0 4.625 1.84375q1.8125 1.828125 1.8125 4.625q0 2.828125 -1.828125 4.6875q-1.828125 1.859375 -4.59375 1.859375q-1.703125 0 -3.265625 -0.765625q-1.546875 -0.78125 -2.359375 -2.265625q-0.796875 -1.5 -0.796875 -3.65625zm3.375 0.1875q0 1.84375 0.875 2.828125q0.875 0.984375 2.171875 0.984375q1.28125 0 2.15625 -0.984375q0.875 -0.984375 0.875 -2.859375q0 -1.828125 -0.875 -2.8125q-0.875 -0.984375 -2.15625 -0.984375q-1.296875 0 -2.171875 0.984375q-0.875 0.984375 -0.875 2.84375zm11.800781 -6.234375l3.03125 0l0 1.703125q1.625 -1.984375 3.875 -1.984375q1.203125 0 2.078125 0.5q0.875 0.484375 1.4375 1.484375q0.828125 -1.0 1.765625 -1.484375q0.953125 -0.5 2.03125 -0.5q1.375 0 2.3125 0.5625q0.953125 0.5625 1.421875 1.640625q0.34375 0.796875 0.34375 2.578125l0 7.953125l-3.296875 0l0 -7.109375q0 -1.859375 -0.328125 -2.390625q-0.46875 -0.703125 -1.40625 -0.703125q-0.703125 0 -1.3125 0.421875q-0.609375 0.421875 -0.875 1.234375q-0.265625 0.8125 -0.265625 2.5625l0 5.984375l-3.296875 0l0 -6.828125q0 -1.8125 -0.171875 -2.328125q-0.171875 -0.53125 -0.546875 -0.78125q-0.375 -0.265625 -1.0 -0.265625q-0.765625 0 -1.375 0.40625q-0.609375 0.40625 -0.875 1.1875q-0.265625 0.765625 -0.265625 2.5625l0 6.046875l-3.28125 0l0 -12.453125zm21.480469 0l3.078125 0l0 1.828125q0.59375 -0.9375 1.609375 -1.515625q1.03125 -0.59375 2.265625 -0.59375q2.171875 0 3.671875 1.703125q1.515625 1.703125 1.515625 4.734375q0 3.125 -1.53125 4.859375q-1.515625 1.71875 -3.671875 1.71875q-1.03125 0 -1.875 -0.40625q-0.84375 -0.421875 -1.765625 -1.40625l0 6.2656326l-3.296875 0l0 -17.187508zm3.265625 6.015625q0 2.09375 0.828125 3.109375q0.828125 1.0 2.03125 1.0q1.140625 0 1.90625 -0.921875q0.765625 -0.921875 0.765625 -3.015625q0 -1.96875 -0.796875 -2.90625q-0.78125 -0.953125 -1.9375 -0.953125q-1.203125 0 -2.0 0.9375q-0.796875 0.921875 -0.796875 2.75zm10.738281 0.03125q0 -1.640625 0.796875 -3.171875q0.8125 -1.53125 2.296875 -2.34375q1.484375 -0.8125 3.3125 -0.8125q2.828125 0 4.625 1.84375q1.8125 1.828125 1.8125 4.625q0 2.828125 -1.828125 4.6875q-1.828125 1.859375 -4.59375 1.859375q-1.703125 0 -3.265625 -0.765625q-1.546875 -0.78125 -2.359375 -2.265625q-0.796875 -1.5 -0.796875 -3.65625zm3.375 0.1875q0 1.84375 0.875 2.828125q0.875 0.984375 2.171875 0.984375q1.28125 0 2.15625 -0.984375q0.875 -0.984375 0.875 -2.859375q0 -1.828125 -0.875 -2.8125q-0.875 -0.984375 -2.15625 -0.984375q-1.296875 0 -2.171875 0.984375q-0.875 0.984375 -0.875 2.84375zm23.363281 6.21875l-3.296875 0l0 -6.359375q0 -2.015625 -0.21875 -2.59375q-0.203125 -0.59375 -0.6875 -0.921875q-0.46875 -0.328125 -1.125 -0.328125q-0.859375 0 -1.546875 0.46875q-0.671875 0.46875 -0.921875 1.25q-0.25 0.765625 -0.25 2.84375l0 5.640625l-3.296875 0l0 -12.453125l3.0625 0l0 1.828125q1.625 -2.109375 4.09375 -2.109375q1.09375 0 1.984375 0.40625q0.90625 0.390625 1.375 1.0q0.46875 0.609375 0.640625 1.390625q0.1875 0.765625 0.1875 2.203125l0 7.734375zm10.550781 -3.96875l3.28125 0.5625q-0.640625 1.796875 -2.015625 2.75q-1.359375 0.9375 -3.40625 0.9375q-3.25 0 -4.796875 -2.125q-1.234375 -1.703125 -1.234375 -4.28125q0 -3.09375 1.609375 -4.84375q1.625 -1.765625 4.09375 -1.765625q2.78125 0 4.375 1.84375q1.609375 1.828125 1.546875 5.609375l-8.25 0q0.03125 1.46875 0.796875 2.28125q0.765625 0.8125 1.890625 0.8125q0.78125 0 1.296875 -0.421875q0.53125 -0.421875 0.8125 -1.359375zm0.1875 -3.328125q-0.046875 -1.421875 -0.75 -2.15625q-0.703125 -0.75 -1.703125 -0.75q-1.078125 0 -1.78125 0.78125q-0.703125 0.78125 -0.6875 2.125l4.921875 0zm17.269531 7.296875l-3.296875 0l0 -6.359375q0 -2.015625 -0.21875 -2.59375q-0.203125 -0.59375 -0.6875 -0.921875q-0.46875 -0.328125 -1.125 -0.328125q-0.859375 0 -1.546875 0.46875q-0.671875 0.46875 -0.921875 1.25q-0.25 0.765625 -0.25 2.84375l0 5.640625l-3.296875 0l0 -12.453125l3.0625 0l0 1.828125q1.625 -2.109375 4.09375 -2.109375q1.09375 0 1.984375 0.40625q0.90625 0.390625 1.375 1.0q0.46875 0.609375 0.640625 1.390625q0.1875 0.765625 0.1875 2.203125l0 7.734375zm9.050781 -12.453125l0 2.625l-2.25 0l0 5.015625q0 1.53125 0.0625 1.78125q0.0625 0.25 0.28125 0.421875q0.234375 0.15625 0.5625 0.15625q0.453125 0 1.328125 -0.3125l0.28125 2.546875q-1.15625 0.5 -2.609375 0.5q-0.890625 0 -1.609375 -0.296875q-0.703125 -0.296875 -1.046875 -0.765625q-0.328125 -0.484375 -0.453125 -1.296875q-0.109375 -0.578125 -0.109375 -2.3125l0 -5.4375l-1.515625 0l0 -2.625l1.515625 0l0 -2.46875l3.3125 -1.921875l0 4.390625l2.25 0z" fill-rule="nonzero"></path></g></svg>

